<svg width="24" height="24" viewBox="0 0 24 24" fill="none" xmlns="http://www.w3.org/2000/svg">
<path d="M12 19C11.4477 19 11 18.5523 11 18V13.5C11 13.2239 10.7761 13 10.5 13H6C5.44772 13 5 12.5523 5 12C5 11.4477 5.44772 11 6 11H10.5C10.7761 11 11 10.7761 11 10.5V6C11 5.44772 11.4477 5 12 5C12.5523 5 13 5.44772 13 6V10.5C13 10.7761 13.2239 11 13.5 11H18C18.5523 11 19 11.4477 19 12C19 12.5523 18.5523 13 18 13H13.5C13.2239 13 13 13.2239 13 13.5V18C13 18.5523 12.5523 19 12 19Z" fill="#D9D9D9"/>
</svg>
