<svg width="150" height="150" viewBox="0 0 150 150" fill="none" xmlns="http://www.w3.org/2000/svg">
<path d="M137 76.487C137 72.2997 136.587 67.9774 135.897 63.9252H76.2231V87.8332H110.402C109.023 95.5324 104.475 102.286 97.7224 106.608L118.119 122.142C130.109 111.201 137 95.2622 137 76.487Z" fill="#4280EF"/>
<path d="M76.2233 137C93.3125 137 107.645 131.462 118.119 122.007L97.7226 106.608C92.0722 110.39 84.7679 112.552 76.2233 112.552C59.6854 112.552 45.766 101.611 40.6668 87.0227L19.7188 102.826C30.4684 123.763 52.2433 137 76.2233 137Z" fill="#34A353"/>
<path d="M40.6666 86.8877C38.0481 79.1885 38.0481 70.8139 40.6666 63.1147L19.7185 47.176C10.7605 64.7356 10.7605 85.4019 19.7185 102.826L40.6666 86.8877Z" fill="#F6B704"/>
<path d="M76.2233 37.5858C85.1814 37.4507 94.0016 40.8275 100.479 46.9058L118.533 29.0761C107.094 18.5404 91.9344 12.8673 76.2233 13.0024C52.2433 13.0024 30.4684 26.2396 19.7188 47.176L40.6668 63.1147C45.766 48.3917 59.6854 37.5858 76.2233 37.5858Z" fill="#E54335"/>
</svg>
