<svg width="24" height="24" viewBox="0 0 24 24" fill="none" xmlns="http://www.w3.org/2000/svg">
<rect width="24" height="24" rx="6" fill="#666699"/>
<path d="M0 6C0 2.68629 2.68629 0 6 0H18C21.3137 0 24 2.68629 24 6V12H0V6Z" fill="#101014"/>
<path d="M14.3452 10.2301C14.2898 10.0043 14.2024 9.80611 14.0831 9.63565C13.9638 9.46094 13.8146 9.31392 13.6357 9.1946C13.4609 9.07102 13.2564 8.9794 13.022 8.91974C12.7919 8.85582 12.5384 8.82386 12.2614 8.82386C11.6648 8.82386 11.1555 8.96662 10.7337 9.25213C10.3161 9.53764 9.99645 9.94886 9.77486 10.4858C9.55753 11.0227 9.44886 11.6705 9.44886 12.429C9.44886 13.196 9.55327 13.8523 9.76207 14.3977C9.97088 14.9432 10.282 15.3608 10.6953 15.6506C11.1087 15.9403 11.6222 16.0852 12.2358 16.0852C12.777 16.0852 13.2266 16.0064 13.5845 15.8487C13.9467 15.6911 14.2173 15.4673 14.3963 15.1776C14.5753 14.8878 14.6648 14.5469 14.6648 14.1548L15.2784 14.2188H12.2869V11.6875H18.0909V13.5028C18.0909 14.696 17.8374 15.7166 17.3303 16.5646C16.8274 17.4084 16.1328 18.0561 15.2464 18.5078C14.3643 18.9553 13.3523 19.179 12.2102 19.179C10.9361 19.179 9.81747 18.9084 8.8544 18.3672C7.89134 17.826 7.1392 17.0547 6.59801 16.0533C6.06108 15.0518 5.79261 13.8608 5.79261 12.4801C5.79261 11.3977 5.95668 10.4389 6.2848 9.60369C6.61719 8.76847 7.07741 8.06321 7.66548 7.48793C8.25355 6.90838 8.93324 6.47159 9.70455 6.17756C10.4759 5.87926 11.3026 5.73011 12.1847 5.73011C12.9602 5.73011 13.6804 5.84091 14.3452 6.0625C15.0142 6.27983 15.6044 6.59091 16.1158 6.99574C16.6314 7.39631 17.0469 7.87145 17.3622 8.42116C17.6776 8.97088 17.8693 9.57386 17.9375 10.2301H14.3452Z" fill="#D9D9D9"/>
</svg>
