<svg width="402" height="402" viewBox="0 0 402 402" fill="none" xmlns="http://www.w3.org/2000/svg">
<path d="M1 383V19C1 9.05888 9.05888 1 19 1H383C392.941 1 401 9.05888 401 19V383C401 392.941 392.941 401 383 401H19C9.05888 401 1 392.941 1 383Z" stroke="#D9D9D9" stroke-width="2" stroke-dasharray="2 2"/>
<path d="M149.143 191L147.294 184.455H148.866L150.017 189.057H150.077L151.253 184.455H152.808L153.984 189.031H154.048L155.182 184.455H156.759L154.905 191H153.298L152.071 186.577H151.982L150.754 191H149.143ZM159.186 191L157.337 184.455H158.909L160.06 189.057H160.12L161.296 184.455H162.851L164.027 189.031H164.091L165.225 184.455H166.801L164.948 191H163.341L162.114 186.577H162.025L160.797 191H159.186ZM169.229 191L167.38 184.455H168.952L170.103 189.057H170.163L171.339 184.455H172.894L174.07 189.031H174.134L175.268 184.455H176.844L174.991 191H173.384L172.157 186.577H172.067L170.84 191H169.229ZM177.981 191.094C177.723 191.094 177.501 191.003 177.316 190.821C177.132 190.639 177.041 190.418 177.044 190.156C177.041 189.901 177.132 189.682 177.316 189.5C177.501 189.318 177.723 189.227 177.981 189.227C178.231 189.227 178.449 189.318 178.633 189.5C178.821 189.682 178.916 189.901 178.919 190.156C178.916 190.33 178.87 190.487 178.782 190.629C178.697 190.771 178.583 190.885 178.441 190.97C178.302 191.053 178.149 191.094 177.981 191.094ZM183.358 193.591C182.804 193.591 182.328 193.516 181.93 193.365C181.533 193.217 181.213 193.018 180.972 192.768C180.73 192.518 180.562 192.241 180.469 191.938L181.858 191.601C181.92 191.729 182.011 191.855 182.131 191.98C182.25 192.108 182.411 192.213 182.612 192.295C182.817 192.381 183.074 192.423 183.384 192.423C183.821 192.423 184.183 192.317 184.47 192.104C184.757 191.893 184.901 191.547 184.901 191.064V189.824H184.824C184.744 189.983 184.628 190.146 184.474 190.314C184.324 190.482 184.124 190.622 183.874 190.736C183.626 190.849 183.315 190.906 182.94 190.906C182.438 190.906 181.982 190.788 181.572 190.553C181.166 190.314 180.842 189.959 180.601 189.487C180.362 189.013 180.243 188.419 180.243 187.706C180.243 186.987 180.362 186.381 180.601 185.886C180.842 185.389 181.168 185.013 181.577 184.757C181.986 184.499 182.442 184.369 182.945 184.369C183.328 184.369 183.643 184.435 183.891 184.565C184.141 184.693 184.339 184.848 184.487 185.03C184.635 185.209 184.747 185.378 184.824 185.537H184.909V184.455H186.43V191.107C186.43 191.666 186.297 192.129 186.03 192.496C185.763 192.862 185.398 193.136 184.935 193.318C184.472 193.5 183.946 193.591 183.358 193.591ZM183.371 189.696C183.697 189.696 183.976 189.616 184.206 189.457C184.436 189.298 184.611 189.07 184.73 188.771C184.849 188.473 184.909 188.115 184.909 187.697C184.909 187.286 184.849 186.925 184.73 186.615C184.614 186.305 184.44 186.065 184.21 185.895C183.983 185.722 183.703 185.635 183.371 185.635C183.027 185.635 182.74 185.724 182.51 185.903C182.28 186.082 182.107 186.328 181.99 186.641C181.874 186.95 181.815 187.303 181.815 187.697C181.815 188.098 181.874 188.449 181.99 188.75C182.109 189.048 182.284 189.281 182.514 189.449C182.747 189.614 183.033 189.696 183.371 189.696ZM188.011 191V184.455H189.507V185.545H189.575C189.695 185.168 189.899 184.876 190.189 184.672C190.482 184.464 190.815 184.361 191.19 184.361C191.276 184.361 191.371 184.365 191.476 184.374C191.584 184.379 191.673 184.389 191.744 184.403V185.822C191.679 185.8 191.575 185.78 191.433 185.763C191.294 185.743 191.159 185.733 191.028 185.733C190.747 185.733 190.494 185.794 190.27 185.916C190.048 186.036 189.874 186.202 189.746 186.415C189.618 186.628 189.554 186.874 189.554 187.152V191H188.011ZM194.536 191.132C194.121 191.132 193.747 191.058 193.415 190.911C193.085 190.76 192.824 190.538 192.631 190.246C192.44 189.953 192.345 189.592 192.345 189.163C192.345 188.794 192.413 188.489 192.55 188.247C192.686 188.006 192.872 187.812 193.108 187.668C193.344 187.523 193.609 187.413 193.905 187.339C194.203 187.263 194.511 187.207 194.83 187.173C195.213 187.134 195.524 187.098 195.763 187.067C196.001 187.033 196.175 186.982 196.283 186.913C196.393 186.842 196.449 186.733 196.449 186.585V186.56C196.449 186.239 196.354 185.99 196.163 185.814C195.973 185.638 195.699 185.55 195.341 185.55C194.963 185.55 194.663 185.632 194.442 185.797C194.223 185.962 194.075 186.156 193.999 186.381L192.558 186.176C192.672 185.778 192.859 185.446 193.121 185.179C193.382 184.909 193.702 184.707 194.08 184.574C194.457 184.438 194.875 184.369 195.332 184.369C195.648 184.369 195.962 184.406 196.274 184.48C196.587 184.554 196.872 184.676 197.131 184.847C197.389 185.014 197.597 185.243 197.753 185.533C197.912 185.822 197.991 186.185 197.991 186.619V191H196.509V190.101H196.457C196.364 190.283 196.232 190.453 196.061 190.612C195.893 190.768 195.682 190.895 195.426 190.991C195.173 191.085 194.876 191.132 194.536 191.132ZM194.936 189.999C195.246 189.999 195.514 189.937 195.741 189.815C195.969 189.69 196.143 189.526 196.266 189.321C196.391 189.116 196.453 188.893 196.453 188.652V187.881C196.405 187.92 196.322 187.957 196.206 187.991C196.092 188.026 195.964 188.055 195.822 188.081C195.68 188.107 195.54 188.129 195.401 188.149C195.261 188.169 195.141 188.186 195.038 188.2C194.808 188.232 194.602 188.283 194.42 188.354C194.239 188.425 194.095 188.524 193.99 188.652C193.885 188.777 193.832 188.939 193.832 189.138C193.832 189.422 193.936 189.636 194.143 189.781C194.351 189.926 194.615 189.999 194.936 189.999ZM201.972 191.115C201.457 191.115 200.997 190.983 200.591 190.719C200.185 190.455 199.864 190.071 199.628 189.568C199.392 189.065 199.274 188.455 199.274 187.736C199.274 187.009 199.393 186.395 199.632 185.895C199.874 185.392 200.199 185.013 200.608 184.757C201.017 184.499 201.473 184.369 201.976 184.369C202.359 184.369 202.675 184.435 202.922 184.565C203.169 184.693 203.365 184.848 203.51 185.03C203.655 185.209 203.767 185.378 203.847 185.537H203.911V182.273H205.457V191H203.94V189.969H203.847C203.767 190.128 203.652 190.297 203.501 190.476C203.351 190.652 203.152 190.803 202.905 190.928C202.658 191.053 202.347 191.115 201.972 191.115ZM202.402 189.849C202.729 189.849 203.007 189.761 203.237 189.585C203.467 189.406 203.642 189.158 203.761 188.839C203.881 188.521 203.94 188.151 203.94 187.727C203.94 187.304 203.881 186.936 203.761 186.624C203.645 186.311 203.472 186.068 203.241 185.895C203.014 185.722 202.734 185.635 202.402 185.635C202.058 185.635 201.771 185.724 201.541 185.903C201.311 186.082 201.138 186.33 201.021 186.645C200.905 186.96 200.847 187.321 200.847 187.727C200.847 188.136 200.905 188.501 201.021 188.822C201.141 189.141 201.315 189.392 201.545 189.577C201.778 189.759 202.064 189.849 202.402 189.849ZM209.999 191.128C209.343 191.128 208.776 190.991 208.299 190.719C207.824 190.443 207.459 190.054 207.203 189.551C206.948 189.045 206.82 188.45 206.82 187.766C206.82 187.092 206.948 186.501 207.203 185.993C207.462 185.482 207.823 185.084 208.286 184.8C208.749 184.513 209.293 184.369 209.918 184.369C210.321 184.369 210.702 184.435 211.06 184.565C211.421 184.693 211.739 184.892 212.015 185.162C212.293 185.432 212.512 185.776 212.671 186.193C212.83 186.608 212.909 187.102 212.909 187.676V188.149H207.544V187.109H211.431C211.428 186.814 211.364 186.551 211.239 186.321C211.114 186.088 210.939 185.905 210.715 185.771C210.493 185.638 210.235 185.571 209.939 185.571C209.624 185.571 209.347 185.648 209.108 185.801C208.87 185.952 208.684 186.151 208.55 186.398C208.419 186.642 208.353 186.911 208.35 187.203V188.111C208.35 188.491 208.419 188.818 208.559 189.091C208.698 189.361 208.892 189.568 209.142 189.713C209.392 189.855 209.685 189.926 210.02 189.926C210.245 189.926 210.448 189.895 210.63 189.832C210.811 189.767 210.969 189.672 211.103 189.547C211.236 189.422 211.337 189.267 211.405 189.082L212.846 189.244C212.755 189.625 212.581 189.957 212.326 190.241C212.073 190.523 211.749 190.741 211.354 190.898C210.959 191.051 210.507 191.128 209.999 191.128ZM215.757 182.273V191H214.214V182.273H215.757ZM220.241 191.128C219.585 191.128 219.018 190.991 218.541 190.719C218.066 190.443 217.701 190.054 217.446 189.551C217.19 189.045 217.062 188.45 217.062 187.766C217.062 187.092 217.19 186.501 217.446 185.993C217.704 185.482 218.065 185.084 218.528 184.8C218.991 184.513 219.535 184.369 220.16 184.369C220.564 184.369 220.944 184.435 221.302 184.565C221.663 184.693 221.981 184.892 222.257 185.162C222.535 185.432 222.754 185.776 222.913 186.193C223.072 186.608 223.152 187.102 223.152 187.676V188.149H217.787V187.109H221.673C221.67 186.814 221.606 186.551 221.481 186.321C221.356 186.088 221.181 185.905 220.957 185.771C220.735 185.638 220.477 185.571 220.181 185.571C219.866 185.571 219.589 185.648 219.35 185.801C219.112 185.952 218.926 186.151 218.792 186.398C218.662 186.642 218.595 186.911 218.592 187.203V188.111C218.592 188.491 218.662 188.818 218.801 189.091C218.94 189.361 219.135 189.568 219.385 189.713C219.635 189.855 219.927 189.926 220.262 189.926C220.487 189.926 220.69 189.895 220.872 189.832C221.054 189.767 221.211 189.672 221.345 189.547C221.478 189.422 221.579 189.267 221.647 189.082L223.088 189.244C222.997 189.625 222.824 189.957 222.568 190.241C222.315 190.523 221.991 190.741 221.596 190.898C221.201 191.051 220.75 191.128 220.241 191.128ZM229.63 186.185L228.224 186.338C228.184 186.196 228.114 186.062 228.015 185.938C227.918 185.812 227.788 185.712 227.623 185.635C227.458 185.558 227.256 185.52 227.018 185.52C226.697 185.52 226.427 185.589 226.208 185.729C225.992 185.868 225.886 186.048 225.888 186.27C225.886 186.46 225.955 186.615 226.097 186.734C226.242 186.854 226.481 186.952 226.813 187.028L227.93 187.267C228.549 187.401 229.009 187.612 229.31 187.902C229.614 188.192 229.768 188.571 229.771 189.04C229.768 189.452 229.647 189.815 229.408 190.131C229.173 190.443 228.844 190.687 228.424 190.864C228.004 191.04 227.521 191.128 226.975 191.128C226.174 191.128 225.529 190.96 225.04 190.625C224.552 190.287 224.261 189.817 224.167 189.214L225.671 189.07C225.739 189.365 225.884 189.588 226.106 189.739C226.327 189.889 226.616 189.964 226.971 189.964C227.337 189.964 227.631 189.889 227.853 189.739C228.077 189.588 228.19 189.402 228.19 189.18C228.19 188.993 228.117 188.838 227.972 188.716C227.83 188.594 227.609 188.5 227.308 188.435L226.191 188.2C225.563 188.07 225.099 187.849 224.798 187.54C224.496 187.227 224.347 186.832 224.35 186.355C224.347 185.952 224.457 185.602 224.678 185.307C224.903 185.009 225.214 184.778 225.612 184.616C226.012 184.452 226.474 184.369 226.996 184.369C227.763 184.369 228.367 184.533 228.808 184.859C229.251 185.186 229.525 185.628 229.63 186.185ZM236.216 186.185L234.81 186.338C234.77 186.196 234.7 186.062 234.601 185.938C234.504 185.812 234.374 185.712 234.209 185.635C234.044 185.558 233.842 185.52 233.604 185.52C233.283 185.52 233.013 185.589 232.794 185.729C232.578 185.868 232.472 186.048 232.474 186.27C232.472 186.46 232.541 186.615 232.683 186.734C232.828 186.854 233.067 186.952 233.399 187.028L234.516 187.267C235.135 187.401 235.595 187.612 235.896 187.902C236.2 188.192 236.354 188.571 236.357 189.04C236.354 189.452 236.233 189.815 235.994 190.131C235.759 190.443 235.43 190.687 235.01 190.864C234.589 191.04 234.107 191.128 233.561 191.128C232.76 191.128 232.115 190.96 231.626 190.625C231.138 190.287 230.847 189.817 230.753 189.214L232.257 189.07C232.325 189.365 232.47 189.588 232.692 189.739C232.913 189.889 233.202 189.964 233.557 189.964C233.923 189.964 234.217 189.889 234.439 189.739C234.663 189.588 234.776 189.402 234.776 189.18C234.776 188.993 234.703 188.838 234.558 188.716C234.416 188.594 234.195 188.5 233.893 188.435L232.777 188.2C232.149 188.07 231.685 187.849 231.384 187.54C231.082 187.227 230.933 186.832 230.936 186.355C230.933 185.952 231.043 185.602 231.264 185.307C231.489 185.009 231.8 184.778 232.197 184.616C232.598 184.452 233.06 184.369 233.582 184.369C234.349 184.369 234.953 184.533 235.393 184.859C235.837 185.186 236.111 185.628 236.216 186.185ZM238.579 191.094C238.32 191.094 238.099 191.003 237.914 190.821C237.729 190.639 237.638 190.418 237.641 190.156C237.638 189.901 237.729 189.682 237.914 189.5C238.099 189.318 238.32 189.227 238.579 189.227C238.829 189.227 239.046 189.318 239.231 189.5C239.418 189.682 239.513 189.901 239.516 190.156C239.513 190.33 239.468 190.487 239.38 190.629C239.295 190.771 239.181 190.885 239.039 190.97C238.9 191.053 238.746 191.094 238.579 191.094ZM246.282 186.185L244.876 186.338C244.836 186.196 244.767 186.062 244.667 185.938C244.571 185.812 244.44 185.712 244.275 185.635C244.11 185.558 243.909 185.52 243.67 185.52C243.349 185.52 243.079 185.589 242.86 185.729C242.645 185.868 242.538 186.048 242.541 186.27C242.538 186.46 242.608 186.615 242.75 186.734C242.895 186.854 243.133 186.952 243.466 187.028L244.582 187.267C245.201 187.401 245.662 187.612 245.963 187.902C246.267 188.192 246.42 188.571 246.423 189.04C246.42 189.452 246.299 189.815 246.061 190.131C245.825 190.443 245.497 190.687 245.076 190.864C244.656 191.04 244.173 191.128 243.627 191.128C242.826 191.128 242.181 190.96 241.693 190.625C241.204 190.287 240.913 189.817 240.819 189.214L242.324 189.07C242.392 189.365 242.537 189.588 242.758 189.739C242.98 189.889 243.268 189.964 243.623 189.964C243.99 189.964 244.284 189.889 244.505 189.739C244.73 189.588 244.842 189.402 244.842 189.18C244.842 188.993 244.77 188.838 244.625 188.716C244.483 188.594 244.261 188.5 243.96 188.435L242.843 188.2C242.216 188.07 241.751 187.849 241.45 187.54C241.149 187.227 241 186.832 241.002 186.355C241 185.952 241.109 185.602 241.331 185.307C241.555 185.009 241.866 184.778 242.264 184.616C242.664 184.452 243.126 184.369 243.649 184.369C244.416 184.369 245.02 184.533 245.46 184.859C245.903 185.186 246.177 185.628 246.282 186.185ZM250.593 191.128C249.936 191.128 249.37 190.991 248.892 190.719C248.418 190.443 248.053 190.054 247.797 189.551C247.542 189.045 247.414 188.45 247.414 187.766C247.414 187.092 247.542 186.501 247.797 185.993C248.056 185.482 248.417 185.084 248.88 184.8C249.343 184.513 249.887 184.369 250.512 184.369C250.915 184.369 251.296 184.435 251.654 184.565C252.015 184.693 252.333 184.892 252.608 185.162C252.887 185.432 253.105 185.776 253.265 186.193C253.424 186.608 253.503 187.102 253.503 187.676V188.149H248.138V187.109H252.025C252.022 186.814 251.958 186.551 251.833 186.321C251.708 186.088 251.533 185.905 251.309 185.771C251.087 185.638 250.828 185.571 250.533 185.571C250.218 185.571 249.941 185.648 249.702 185.801C249.463 185.952 249.277 186.151 249.144 186.398C249.013 186.642 248.946 186.911 248.944 187.203V188.111C248.944 188.491 249.013 188.818 249.152 189.091C249.292 189.361 249.486 189.568 249.736 189.713C249.986 189.855 250.279 189.926 250.614 189.926C250.838 189.926 251.042 189.895 251.223 189.832C251.405 189.767 251.563 189.672 251.696 189.547C251.83 189.422 251.931 189.267 251.999 189.082L253.439 189.244C253.348 189.625 253.175 189.957 252.919 190.241C252.667 190.523 252.343 190.741 251.948 190.898C251.553 191.051 251.101 191.128 250.593 191.128Z" fill="#D9D9D9"/>
<rect x="191" y="199" width="20" height="20" fill="#D9D9D9"/>
<rect x="171" y="199" width="20" height="20" fill="#101014"/>
<rect x="211" y="199" width="20" height="20" fill="#503B81"/>
</svg>
