<svg width="400" height="225" viewBox="0 0 400 225" fill="none" xmlns="http://www.w3.org/2000/svg">
<path d="M148.143 103L146.294 96.4545H147.866L149.017 101.057H149.077L150.253 96.4545H151.808L152.984 101.031H153.048L154.182 96.4545H155.759L153.905 103H152.298L151.071 98.5767H150.982L149.754 103H148.143ZM158.186 103L156.337 96.4545H157.909L159.06 101.057H159.12L160.296 96.4545H161.851L163.027 101.031H163.091L164.225 96.4545H165.801L163.948 103H162.341L161.114 98.5767H161.025L159.797 103H158.186ZM168.229 103L166.38 96.4545H167.952L169.103 101.057H169.163L170.339 96.4545H171.894L173.07 101.031H173.134L174.268 96.4545H175.844L173.991 103H172.384L171.157 98.5767H171.067L169.84 103H168.229ZM176.981 103.094C176.723 103.094 176.501 103.003 176.316 102.821C176.132 102.639 176.041 102.418 176.044 102.156C176.041 101.901 176.132 101.682 176.316 101.5C176.501 101.318 176.723 101.227 176.981 101.227C177.231 101.227 177.449 101.318 177.633 101.5C177.821 101.682 177.916 101.901 177.919 102.156C177.916 102.33 177.87 102.487 177.782 102.629C177.697 102.771 177.583 102.885 177.441 102.97C177.302 103.053 177.149 103.094 176.981 103.094ZM182.358 105.591C181.804 105.591 181.328 105.516 180.93 105.365C180.533 105.217 180.213 105.018 179.972 104.768C179.73 104.518 179.562 104.241 179.469 103.938L180.858 103.601C180.92 103.729 181.011 103.855 181.131 103.98C181.25 104.108 181.411 104.213 181.612 104.295C181.817 104.381 182.074 104.423 182.384 104.423C182.821 104.423 183.183 104.317 183.47 104.104C183.757 103.893 183.901 103.547 183.901 103.064V101.824H183.824C183.744 101.983 183.628 102.146 183.474 102.314C183.324 102.482 183.124 102.622 182.874 102.736C182.626 102.849 182.315 102.906 181.94 102.906C181.438 102.906 180.982 102.788 180.572 102.553C180.166 102.314 179.842 101.959 179.601 101.487C179.362 101.013 179.243 100.419 179.243 99.706C179.243 98.9872 179.362 98.3807 179.601 97.8864C179.842 97.3892 180.168 97.0128 180.577 96.7571C180.986 96.4986 181.442 96.3693 181.945 96.3693C182.328 96.3693 182.643 96.4347 182.891 96.5653C183.141 96.6932 183.339 96.848 183.487 97.0298C183.635 97.2088 183.747 97.3778 183.824 97.5369H183.909V96.4545H185.43V103.107C185.43 103.666 185.297 104.129 185.03 104.496C184.763 104.862 184.398 105.136 183.935 105.318C183.472 105.5 182.946 105.591 182.358 105.591ZM182.371 101.696C182.697 101.696 182.976 101.616 183.206 101.457C183.436 101.298 183.611 101.07 183.73 100.771C183.849 100.473 183.909 100.115 183.909 99.6974C183.909 99.2855 183.849 98.9247 183.73 98.6151C183.614 98.3054 183.44 98.0653 183.21 97.8949C182.983 97.7216 182.703 97.6349 182.371 97.6349C182.027 97.6349 181.74 97.7244 181.51 97.9034C181.28 98.0824 181.107 98.3281 180.99 98.6406C180.874 98.9503 180.815 99.3026 180.815 99.6974C180.815 100.098 180.874 100.449 180.99 100.75C181.109 101.048 181.284 101.281 181.514 101.449C181.747 101.614 182.033 101.696 182.371 101.696ZM187.011 103V96.4545H188.507V97.5455H188.575C188.695 97.1676 188.899 96.8764 189.189 96.6719C189.482 96.4645 189.815 96.3608 190.19 96.3608C190.276 96.3608 190.371 96.3651 190.476 96.3736C190.584 96.3793 190.673 96.3892 190.744 96.4034V97.8224C190.679 97.7997 190.575 97.7798 190.433 97.7628C190.294 97.7429 190.159 97.733 190.028 97.733C189.747 97.733 189.494 97.794 189.27 97.9162C189.048 98.0355 188.874 98.2017 188.746 98.4148C188.618 98.6278 188.554 98.8736 188.554 99.152V103H187.011ZM193.536 103.132C193.121 103.132 192.747 103.058 192.415 102.911C192.085 102.76 191.824 102.538 191.631 102.246C191.44 101.953 191.345 101.592 191.345 101.163C191.345 100.794 191.413 100.489 191.55 100.247C191.686 100.006 191.872 99.8125 192.108 99.6676C192.344 99.5227 192.609 99.4134 192.905 99.3395C193.203 99.2628 193.511 99.2074 193.83 99.1733C194.213 99.1335 194.524 99.098 194.763 99.0668C195.001 99.0327 195.175 98.9815 195.283 98.9134C195.393 98.8423 195.449 98.733 195.449 98.5852V98.5597C195.449 98.2386 195.354 97.9901 195.163 97.8139C194.973 97.6378 194.699 97.5497 194.341 97.5497C193.963 97.5497 193.663 97.6321 193.442 97.7969C193.223 97.9616 193.075 98.1562 192.999 98.3807L191.558 98.1761C191.672 97.7784 191.859 97.446 192.121 97.179C192.382 96.9091 192.702 96.7074 193.08 96.5739C193.457 96.4375 193.875 96.3693 194.332 96.3693C194.648 96.3693 194.962 96.4062 195.274 96.4801C195.587 96.554 195.872 96.6761 196.131 96.8466C196.389 97.0142 196.597 97.2429 196.753 97.5327C196.912 97.8224 196.991 98.1847 196.991 98.6193V103H195.509V102.101H195.457C195.364 102.283 195.232 102.453 195.061 102.612C194.893 102.768 194.682 102.895 194.426 102.991C194.173 103.085 193.876 103.132 193.536 103.132ZM193.936 101.999C194.246 101.999 194.514 101.937 194.741 101.815C194.969 101.69 195.143 101.526 195.266 101.321C195.391 101.116 195.453 100.893 195.453 100.652V99.8807C195.405 99.9205 195.322 99.9574 195.206 99.9915C195.092 100.026 194.964 100.055 194.822 100.081C194.68 100.107 194.54 100.129 194.401 100.149C194.261 100.169 194.141 100.186 194.038 100.2C193.808 100.232 193.602 100.283 193.42 100.354C193.239 100.425 193.095 100.524 192.99 100.652C192.885 100.777 192.832 100.939 192.832 101.138C192.832 101.422 192.936 101.636 193.143 101.781C193.351 101.926 193.615 101.999 193.936 101.999ZM200.972 103.115C200.457 103.115 199.997 102.983 199.591 102.719C199.185 102.455 198.864 102.071 198.628 101.568C198.392 101.065 198.274 100.455 198.274 99.7358C198.274 99.0085 198.393 98.3949 198.632 97.8949C198.874 97.392 199.199 97.0128 199.608 96.7571C200.017 96.4986 200.473 96.3693 200.976 96.3693C201.359 96.3693 201.675 96.4347 201.922 96.5653C202.169 96.6932 202.365 96.848 202.51 97.0298C202.655 97.2088 202.767 97.3778 202.847 97.5369H202.911V94.2727H204.457V103H202.94V101.969H202.847C202.767 102.128 202.652 102.297 202.501 102.476C202.351 102.652 202.152 102.803 201.905 102.928C201.658 103.053 201.347 103.115 200.972 103.115ZM201.402 101.849C201.729 101.849 202.007 101.761 202.237 101.585C202.467 101.406 202.642 101.158 202.761 100.839C202.881 100.521 202.94 100.151 202.94 99.7273C202.94 99.304 202.881 98.9361 202.761 98.6236C202.645 98.3111 202.472 98.0682 202.241 97.8949C202.014 97.7216 201.734 97.6349 201.402 97.6349C201.058 97.6349 200.771 97.7244 200.541 97.9034C200.311 98.0824 200.138 98.3295 200.021 98.6449C199.905 98.9602 199.847 99.321 199.847 99.7273C199.847 100.136 199.905 100.501 200.021 100.822C200.141 101.141 200.315 101.392 200.545 101.577C200.778 101.759 201.064 101.849 201.402 101.849ZM208.999 103.128C208.343 103.128 207.776 102.991 207.299 102.719C206.824 102.443 206.459 102.054 206.203 101.551C205.948 101.045 205.82 100.45 205.82 99.7656C205.82 99.0923 205.948 98.5014 206.203 97.9929C206.462 97.4815 206.823 97.0838 207.286 96.7997C207.749 96.5128 208.293 96.3693 208.918 96.3693C209.321 96.3693 209.702 96.4347 210.06 96.5653C210.421 96.6932 210.739 96.892 211.015 97.1619C211.293 97.4318 211.512 97.7756 211.671 98.1932C211.83 98.608 211.909 99.1023 211.909 99.6761V100.149H206.544V99.1094H210.431C210.428 98.8139 210.364 98.5511 210.239 98.321C210.114 98.0881 209.939 97.9048 209.715 97.7713C209.493 97.6378 209.235 97.571 208.939 97.571C208.624 97.571 208.347 97.6477 208.108 97.8011C207.87 97.9517 207.684 98.1506 207.55 98.3977C207.419 98.642 207.353 98.9105 207.35 99.2031V100.111C207.35 100.491 207.419 100.818 207.559 101.091C207.698 101.361 207.892 101.568 208.142 101.713C208.392 101.855 208.685 101.926 209.02 101.926C209.245 101.926 209.448 101.895 209.63 101.832C209.811 101.767 209.969 101.672 210.103 101.547C210.236 101.422 210.337 101.267 210.405 101.082L211.846 101.244C211.755 101.625 211.581 101.957 211.326 102.241C211.073 102.523 210.749 102.741 210.354 102.898C209.959 103.051 209.507 103.128 208.999 103.128ZM214.757 94.2727V103H213.214V94.2727H214.757ZM219.241 103.128C218.585 103.128 218.018 102.991 217.541 102.719C217.066 102.443 216.701 102.054 216.446 101.551C216.19 101.045 216.062 100.45 216.062 99.7656C216.062 99.0923 216.19 98.5014 216.446 97.9929C216.704 97.4815 217.065 97.0838 217.528 96.7997C217.991 96.5128 218.535 96.3693 219.16 96.3693C219.564 96.3693 219.944 96.4347 220.302 96.5653C220.663 96.6932 220.981 96.892 221.257 97.1619C221.535 97.4318 221.754 97.7756 221.913 98.1932C222.072 98.608 222.152 99.1023 222.152 99.6761V100.149H216.787V99.1094H220.673C220.67 98.8139 220.606 98.5511 220.481 98.321C220.356 98.0881 220.181 97.9048 219.957 97.7713C219.735 97.6378 219.477 97.571 219.181 97.571C218.866 97.571 218.589 97.6477 218.35 97.8011C218.112 97.9517 217.926 98.1506 217.792 98.3977C217.662 98.642 217.595 98.9105 217.592 99.2031V100.111C217.592 100.491 217.662 100.818 217.801 101.091C217.94 101.361 218.135 101.568 218.385 101.713C218.635 101.855 218.927 101.926 219.262 101.926C219.487 101.926 219.69 101.895 219.872 101.832C220.054 101.767 220.211 101.672 220.345 101.547C220.478 101.422 220.579 101.267 220.647 101.082L222.088 101.244C221.997 101.625 221.824 101.957 221.568 102.241C221.315 102.523 220.991 102.741 220.596 102.898C220.201 103.051 219.75 103.128 219.241 103.128ZM228.63 98.1847L227.224 98.3381C227.184 98.196 227.114 98.0625 227.015 97.9375C226.918 97.8125 226.788 97.7116 226.623 97.6349C226.458 97.5582 226.256 97.5199 226.018 97.5199C225.697 97.5199 225.427 97.5895 225.208 97.7287C224.992 97.8679 224.886 98.0483 224.888 98.2699C224.886 98.4602 224.955 98.6151 225.097 98.7344C225.242 98.8537 225.481 98.9517 225.813 99.0284L226.93 99.267C227.549 99.4006 228.009 99.6122 228.31 99.902C228.614 100.192 228.768 100.571 228.771 101.04C228.768 101.452 228.647 101.815 228.408 102.131C228.173 102.443 227.844 102.687 227.424 102.864C227.004 103.04 226.521 103.128 225.975 103.128C225.174 103.128 224.529 102.96 224.04 102.625C223.552 102.287 223.261 101.817 223.167 101.214L224.671 101.07C224.739 101.365 224.884 101.588 225.106 101.739C225.327 101.889 225.616 101.964 225.971 101.964C226.337 101.964 226.631 101.889 226.853 101.739C227.077 101.588 227.19 101.402 227.19 101.18C227.19 100.993 227.117 100.838 226.972 100.716C226.83 100.594 226.609 100.5 226.308 100.435L225.191 100.2C224.563 100.07 224.099 99.8494 223.798 99.5398C223.496 99.2273 223.347 98.8324 223.35 98.3551C223.347 97.9517 223.457 97.6023 223.678 97.3068C223.903 97.0085 224.214 96.7784 224.612 96.6165C225.012 96.4517 225.474 96.3693 225.996 96.3693C226.763 96.3693 227.367 96.5327 227.808 96.8594C228.251 97.1861 228.525 97.6278 228.63 98.1847ZM235.216 98.1847L233.81 98.3381C233.77 98.196 233.7 98.0625 233.601 97.9375C233.504 97.8125 233.374 97.7116 233.209 97.6349C233.044 97.5582 232.842 97.5199 232.604 97.5199C232.283 97.5199 232.013 97.5895 231.794 97.7287C231.578 97.8679 231.472 98.0483 231.474 98.2699C231.472 98.4602 231.541 98.6151 231.683 98.7344C231.828 98.8537 232.067 98.9517 232.399 99.0284L233.516 99.267C234.135 99.4006 234.595 99.6122 234.896 99.902C235.2 100.192 235.354 100.571 235.357 101.04C235.354 101.452 235.233 101.815 234.994 102.131C234.759 102.443 234.43 102.687 234.01 102.864C233.589 103.04 233.107 103.128 232.561 103.128C231.76 103.128 231.115 102.96 230.626 102.625C230.138 102.287 229.847 101.817 229.753 101.214L231.257 101.07C231.325 101.365 231.47 101.588 231.692 101.739C231.913 101.889 232.202 101.964 232.557 101.964C232.923 101.964 233.217 101.889 233.439 101.739C233.663 101.588 233.776 101.402 233.776 101.18C233.776 100.993 233.703 100.838 233.558 100.716C233.416 100.594 233.195 100.5 232.893 100.435L231.777 100.2C231.149 100.07 230.685 99.8494 230.384 99.5398C230.082 99.2273 229.933 98.8324 229.936 98.3551C229.933 97.9517 230.043 97.6023 230.264 97.3068C230.489 97.0085 230.8 96.7784 231.197 96.6165C231.598 96.4517 232.06 96.3693 232.582 96.3693C233.349 96.3693 233.953 96.5327 234.393 96.8594C234.837 97.1861 235.111 97.6278 235.216 98.1847ZM237.579 103.094C237.32 103.094 237.099 103.003 236.914 102.821C236.729 102.639 236.638 102.418 236.641 102.156C236.638 101.901 236.729 101.682 236.914 101.5C237.099 101.318 237.32 101.227 237.579 101.227C237.829 101.227 238.046 101.318 238.231 101.5C238.418 101.682 238.513 101.901 238.516 102.156C238.513 102.33 238.468 102.487 238.38 102.629C238.295 102.771 238.181 102.885 238.039 102.97C237.9 103.053 237.746 103.094 237.579 103.094ZM245.282 98.1847L243.876 98.3381C243.836 98.196 243.767 98.0625 243.667 97.9375C243.571 97.8125 243.44 97.7116 243.275 97.6349C243.11 97.5582 242.909 97.5199 242.67 97.5199C242.349 97.5199 242.079 97.5895 241.86 97.7287C241.645 97.8679 241.538 98.0483 241.541 98.2699C241.538 98.4602 241.608 98.6151 241.75 98.7344C241.895 98.8537 242.133 98.9517 242.466 99.0284L243.582 99.267C244.201 99.4006 244.662 99.6122 244.963 99.902C245.267 100.192 245.42 100.571 245.423 101.04C245.42 101.452 245.299 101.815 245.061 102.131C244.825 102.443 244.497 102.687 244.076 102.864C243.656 103.04 243.173 103.128 242.627 103.128C241.826 103.128 241.181 102.96 240.693 102.625C240.204 102.287 239.913 101.817 239.819 101.214L241.324 101.07C241.392 101.365 241.537 101.588 241.758 101.739C241.98 101.889 242.268 101.964 242.623 101.964C242.99 101.964 243.284 101.889 243.505 101.739C243.73 101.588 243.842 101.402 243.842 101.18C243.842 100.993 243.77 100.838 243.625 100.716C243.483 100.594 243.261 100.5 242.96 100.435L241.843 100.2C241.216 100.07 240.751 99.8494 240.45 99.5398C240.149 99.2273 240 98.8324 240.002 98.3551C240 97.9517 240.109 97.6023 240.331 97.3068C240.555 97.0085 240.866 96.7784 241.264 96.6165C241.664 96.4517 242.126 96.3693 242.649 96.3693C243.416 96.3693 244.02 96.5327 244.46 96.8594C244.903 97.1861 245.177 97.6278 245.282 98.1847ZM249.593 103.128C248.936 103.128 248.37 102.991 247.892 102.719C247.418 102.443 247.053 102.054 246.797 101.551C246.542 101.045 246.414 100.45 246.414 99.7656C246.414 99.0923 246.542 98.5014 246.797 97.9929C247.056 97.4815 247.417 97.0838 247.88 96.7997C248.343 96.5128 248.887 96.3693 249.512 96.3693C249.915 96.3693 250.296 96.4347 250.654 96.5653C251.015 96.6932 251.333 96.892 251.608 97.1619C251.887 97.4318 252.105 97.7756 252.265 98.1932C252.424 98.608 252.503 99.1023 252.503 99.6761V100.149H247.138V99.1094H251.025C251.022 98.8139 250.958 98.5511 250.833 98.321C250.708 98.0881 250.533 97.9048 250.309 97.7713C250.087 97.6378 249.828 97.571 249.533 97.571C249.218 97.571 248.941 97.6477 248.702 97.8011C248.463 97.9517 248.277 98.1506 248.144 98.3977C248.013 98.642 247.946 98.9105 247.944 99.2031V100.111C247.944 100.491 248.013 100.818 248.152 101.091C248.292 101.361 248.486 101.568 248.736 101.713C248.986 101.855 249.279 101.926 249.614 101.926C249.838 101.926 250.042 101.895 250.223 101.832C250.405 101.767 250.563 101.672 250.696 101.547C250.83 101.422 250.931 101.267 250.999 101.082L252.439 101.244C252.348 101.625 252.175 101.957 251.919 102.241C251.667 102.523 251.343 102.741 250.948 102.898C250.553 103.051 250.101 103.128 249.593 103.128Z" fill="#D9D9D9"/>
<rect x="190" y="111" width="20" height="20" fill="#D9D9D9"/>
<rect x="170" y="111" width="20" height="20" fill="#101014"/>
<rect x="210" y="111" width="20" height="20" fill="#503B81"/>
<rect x="1" y="1" width="398" height="223" rx="17" stroke="#D9D9D9" stroke-width="2" stroke-dasharray="4 4"/>
</svg>
