<svg width="24" height="24" viewBox="0 0 24 24" fill="none" xmlns="http://www.w3.org/2000/svg">
<path d="M11 21V14.025C11 13.4727 10.5506 13.0319 10.0025 12.964C9.29048 12.8758 8.59798 12.692 7.925 12.4125C6.94167 12.0042 6.075 11.425 5.325 10.675C4.575 9.925 4 9.05833 3.6 8.075C3.2 7.09167 3 6.06667 3 5V5C3 3.89543 3.89543 3 5 3V3C6.05 3 7.06667 3.20417 8.05 3.6125C9.03333 4.02083 9.9 4.6 10.65 5.35C11.1667 5.86667 11.5958 6.43333 11.9375 7.05C12.2102 7.54226 12.4325 8.06107 12.6044 8.60643C12.6564 8.77147 12.8826 8.81465 13 8.6875V8.6875C13.1 8.57917 13.2083 8.46667 13.325 8.35C14.075 7.6 14.9417 7.02083 15.925 6.6125C16.9083 6.20417 17.9333 6 19 6V6C20.1046 6 21 6.89543 21 8V8C21 9.06667 20.7958 10.0917 20.3875 11.075C19.9792 12.0583 19.4 12.925 18.65 13.675C17.9 14.425 17.0375 15 16.0625 15.4C15.3956 15.6736 14.7073 15.8536 13.9976 15.9401C13.4494 16.0069 13 16.4477 13 17V21H11ZM10.0043 10.9197C10.5493 11.0092 11.0097 10.5491 10.9172 10.0046C10.8419 9.56143 10.7154 9.13072 10.5375 8.7125C10.2292 7.9875 9.79167 7.34167 9.225 6.775C8.65833 6.20833 8.0125 5.77083 7.2875 5.4625C6.86928 5.28464 6.43858 5.15807 5.99539 5.08281C5.45091 4.99034 4.9908 5.45069 5.08025 5.99568C5.15344 6.44158 5.27669 6.87635 5.45 7.3C5.75 8.03333 6.18333 8.68333 6.75 9.25C7.31667 9.81667 7.96667 10.25 8.7 10.55C9.12365 10.7233 9.55842 10.8466 10.0043 10.9197ZM13.0806 13.0044C12.9906 13.5493 13.4507 14.0094 13.9956 13.9194C14.4387 13.8462 14.8694 13.723 15.2875 13.55C16.0125 13.25 16.6583 12.8167 17.225 12.25C17.7917 11.6833 18.2292 11.0333 18.5375 10.3C18.7157 9.87627 18.8423 9.44142 18.9176 8.99544C19.0094 8.45084 18.5492 7.99059 18.0046 8.08244C17.5586 8.15766 17.1237 8.28434 16.7 8.4625C15.9667 8.77083 15.3167 9.20833 14.75 9.775C14.1833 10.3417 13.75 10.9875 13.45 11.7125C13.277 12.1306 13.1538 12.5613 13.0806 13.0044Z" fill="#7FBF40"/>
</svg>
