<svg width="24" height="24" viewBox="0 0 24 24" fill="none" xmlns="http://www.w3.org/2000/svg">
<path d="M5.07624 20.3035C4.68864 20.6885 4.06259 20.6875 3.67625 20.3012V20.3012C3.28902 19.9139 3.28902 19.2861 3.67625 18.8988L12.7464 9.82873C13.0355 9.5396 13.1048 9.10544 13.0266 8.70409C12.9231 8.17314 12.9476 7.59678 13.1001 6.975C13.3168 6.09167 13.7918 5.3 14.5251 4.6C15.4084 3.71667 16.3918 3.2 17.4751 3.05C18.5584 2.9 19.4418 3.16667 20.1251 3.85C20.8084 4.53333 21.0751 5.41667 20.9251 6.5C20.7751 7.58333 20.2584 8.56667 19.3751 9.45C18.6751 10.1833 17.8834 10.6583 17.0001 10.875C16.3783 11.0275 15.802 11.052 15.271 10.9485C14.8697 10.8703 14.4355 10.9396 14.1464 11.2287L13.3751 12L20.2739 18.8988C20.6612 19.2861 20.6612 19.9139 20.2739 20.3012V20.3012C19.8876 20.6875 19.2616 20.6885 18.874 20.3035L11.9751 13.45L5.07624 20.3035ZM8.0322 11.7429C7.64168 12.1334 7.00852 12.1334 6.61799 11.7429L4.3251 9.45C3.4251 8.55 2.9751 7.475 2.9751 6.225C2.9751 5.31574 3.2132 4.49908 3.68941 3.77501C3.99375 3.31227 4.64214 3.31959 5.03219 3.7128L9.82366 8.5429C10.2115 8.93388 10.2102 9.56486 9.82083 9.95427L8.0322 11.7429Z" fill="#D9D9D9"/>
</svg>
