<svg width="40" height="40" viewBox="0 0 40 40" fill="none" xmlns="http://www.w3.org/2000/svg">
<path d="M6.61109 31.6667C5.43517 31.6667 4.51851 31.2662 3.86109 30.4653C3.2037 29.6644 2.96296 28.6111 3.13888 27.3056L5.05555 13.8333C5.28705 12.2963 5.99308 10.9954 7.17363 9.93055C8.35416 8.86575 9.71295 8.33334 11.25 8.33334H28.7778C30.3148 8.33334 31.6736 8.86575 32.8542 9.93055C34.0347 10.9954 34.7407 12.2963 34.9722 13.8333L36.8611 27.3056C37.0371 28.6111 36.7963 29.6644 36.1389 30.4653C35.4815 31.2662 34.5648 31.6667 33.3889 31.6667C32.7686 31.6667 32.2269 31.5625 31.7639 31.3542C31.301 31.1458 30.8982 30.8704 30.5556 30.5278L28.1741 28.1463C27.0489 27.021 25.5227 26.3889 23.9314 26.3889H16.0686C14.4773 26.3889 12.9512 27.021 11.8259 28.1463L9.44442 30.5278C9.10184 30.8704 8.69906 31.1458 8.23609 31.3542C7.77312 31.5625 7.23145 31.6667 6.61109 31.6667ZM28.8889 21.6667C29.3426 21.6667 29.7338 21.5023 30.0625 21.1736C30.3912 20.8449 30.5556 20.4537 30.5556 20C30.5556 19.5463 30.3912 19.1551 30.0625 18.8264C29.7338 18.4977 29.3426 18.3333 28.8889 18.3333C28.4352 18.3333 28.044 18.4977 27.7153 18.8264C27.3866 19.1551 27.2223 19.5463 27.2223 20C27.2223 20.4537 27.3866 20.8449 27.7153 21.1736C28.044 21.5023 28.4352 21.6667 28.8889 21.6667ZM25.4167 16.3889C25.8704 16.3889 26.2616 16.2245 26.5903 15.8958C26.919 15.5671 27.0833 15.1759 27.0833 14.7222C27.0833 14.2685 26.919 13.8773 26.5903 13.5486C26.2616 13.2199 25.8704 13.0556 25.4167 13.0556C24.963 13.0556 24.5718 13.2199 24.2431 13.5486C23.9144 13.8773 23.75 14.2685 23.75 14.7222C23.75 15.1759 23.9144 15.5671 24.2431 15.8958C24.5718 16.2245 24.963 16.3889 25.4167 16.3889ZM12.6389 20.4167C12.6389 21.0303 13.1363 21.5278 13.75 21.5278V21.5278C14.3636 21.5278 14.8611 21.0303 14.8611 20.4167V19.2361C14.8611 18.8142 15.2031 18.4722 15.625 18.4722H16.8056C17.4192 18.4722 17.9167 17.9748 17.9167 17.3611V17.3611C17.9167 16.7475 17.4192 16.25 16.8056 16.25H15.625C15.2031 16.25 14.8611 15.908 14.8611 15.4861V14.3056C14.8611 13.6919 14.3636 13.1945 13.75 13.1945V13.1945C13.1363 13.1945 12.6389 13.6919 12.6389 14.3056V15.4861C12.6389 15.908 12.2969 16.25 11.875 16.25H10.6944C10.0808 16.25 9.58334 16.7475 9.58334 17.3611V17.3611C9.58334 17.9748 10.0808 18.4722 10.6944 18.4722H11.875C12.2969 18.4722 12.6389 18.8142 12.6389 19.2361V20.4167Z" fill="#101014"/>
</svg>
