<svg width="40" height="40" viewBox="0 0 40 40" fill="none" xmlns="http://www.w3.org/2000/svg">
<path d="M7.98661 34.0294C7.44921 34.5656 6.57901 34.5651 6.04219 34.0283V34.0283C5.50497 33.4911 5.50497 32.6201 6.04219 32.0828L20.9674 17.1577C21.8482 16.2768 22.0148 14.943 21.9121 13.7015C21.8561 13.0253 21.9132 12.3285 22.0833 11.6111C22.4259 10.1667 23.2176 8.83334 24.4583 7.61112C25.7824 6.30556 27.338 5.49537 29.125 5.18054C30.912 4.86573 32.375 5.27777 33.5139 6.41666C34.6713 7.57408 35.0833 9.03704 34.75 10.8055C34.4167 12.5741 33.5694 14.1481 32.2083 15.5278C31.0602 16.713 29.7732 17.4861 28.3472 17.8472C27.6645 18.0201 27.0073 18.0922 26.3756 18.0634C25.1481 18.0076 23.8326 18.1813 22.9637 19.0502L21.8472 20.1667L33.7634 32.0828C34.3006 32.6201 34.3006 33.4911 33.7634 34.0283V34.0283C33.2265 34.5651 32.3563 34.5656 31.8189 34.0294L19.9028 22.1389L7.98661 34.0294ZM13.5392 19.0858C12.7582 19.8668 11.4918 19.8668 10.7108 19.0858L7.15279 15.5278C5.70835 14.0833 4.9676 12.3657 4.93054 10.375C4.89995 8.73022 5.35604 7.25294 6.2988 5.94317C6.63056 5.48226 7.29214 5.47359 7.69316 5.87569L15.7979 14.0025C16.5772 14.7838 16.5763 16.0487 15.796 16.829L13.5392 19.0858Z" fill="#101014"/>
</svg>
