<svg width="400" height="400" viewBox="0 0 400 400" fill="none" xmlns="http://www.w3.org/2000/svg">
<rect width="400" height="400" fill="#E75D18"/>
<path d="M297.554 31.112C296.775 31.112 296.071 30.9787 295.442 30.712C294.823 30.4453 294.332 30.0613 293.97 29.56C293.607 29.0587 293.42 28.4667 293.41 27.784H295.81C295.842 28.2427 296.002 28.6053 296.29 28.872C296.588 29.1387 296.994 29.272 297.506 29.272C298.028 29.272 298.439 29.1493 298.738 28.904C299.036 28.648 299.186 28.3173 299.186 27.912C299.186 27.5813 299.084 27.3093 298.882 27.096C298.679 26.8827 298.423 26.7173 298.114 26.6C297.815 26.472 297.399 26.3333 296.866 26.184C296.14 25.9707 295.548 25.7627 295.09 25.56C294.642 25.3467 294.252 25.032 293.922 24.616C293.602 24.1893 293.442 23.624 293.442 22.92C293.442 22.2587 293.607 21.6827 293.938 21.192C294.268 20.7013 294.732 20.328 295.33 20.072C295.927 19.8053 296.61 19.672 297.378 19.672C298.53 19.672 299.463 19.9547 300.178 20.52C300.903 21.0747 301.303 21.8533 301.378 22.856H298.914C298.892 22.472 298.727 22.1573 298.418 21.912C298.119 21.656 297.719 21.528 297.218 21.528C296.78 21.528 296.428 21.64 296.162 21.864C295.906 22.088 295.778 22.4133 295.778 22.84C295.778 23.1387 295.874 23.3893 296.066 23.592C296.268 23.784 296.514 23.944 296.802 24.072C297.1 24.1893 297.516 24.328 298.05 24.488C298.775 24.7013 299.367 24.9147 299.826 25.128C300.284 25.3413 300.679 25.6613 301.01 26.088C301.34 26.5147 301.506 27.0747 301.506 27.768C301.506 28.3653 301.351 28.92 301.042 29.432C300.732 29.944 300.279 30.3547 299.682 30.664C299.084 30.9627 298.375 31.112 297.554 31.112ZM302.872 26.568C302.872 25.6507 303.058 24.8507 303.432 24.168C303.805 23.4747 304.322 22.9413 304.984 22.568C305.645 22.184 306.402 21.992 307.256 21.992C308.354 21.992 309.261 22.2693 309.976 22.824C310.701 23.368 311.186 24.136 311.432 25.128H309.016C308.888 24.744 308.669 24.4453 308.36 24.232C308.061 24.008 307.688 23.896 307.24 23.896C306.6 23.896 306.093 24.1307 305.72 24.6C305.346 25.0587 305.16 25.7147 305.16 26.568C305.16 27.4107 305.346 28.0667 305.72 28.536C306.093 28.9947 306.6 29.224 307.24 29.224C308.146 29.224 308.738 28.8187 309.016 28.008H311.432C311.186 28.968 310.701 29.7307 309.976 30.296C309.25 30.8613 308.344 31.144 307.256 31.144C306.402 31.144 305.645 30.9573 304.984 30.584C304.322 30.2 303.805 29.6667 303.432 28.984C303.058 28.2907 302.872 27.4853 302.872 26.568ZM318.065 22.008C318.737 22.008 319.334 22.1573 319.857 22.456C320.379 22.744 320.785 23.176 321.073 23.752C321.371 24.3173 321.521 25 321.521 25.8V31H319.281V26.104C319.281 25.4 319.105 24.8613 318.753 24.488C318.401 24.104 317.921 23.912 317.313 23.912C316.694 23.912 316.203 24.104 315.841 24.488C315.489 24.8613 315.313 25.4 315.313 26.104V31H313.073V19.16H315.313V23.24C315.601 22.856 315.985 22.5573 316.465 22.344C316.945 22.12 317.478 22.008 318.065 22.008ZM327.587 31.144C326.734 31.144 325.966 30.9573 325.283 30.584C324.6 30.2 324.062 29.6613 323.667 28.968C323.283 28.2747 323.091 27.4747 323.091 26.568C323.091 25.6613 323.288 24.8613 323.683 24.168C324.088 23.4747 324.638 22.9413 325.331 22.568C326.024 22.184 326.798 21.992 327.651 21.992C328.504 21.992 329.278 22.184 329.971 22.568C330.664 22.9413 331.208 23.4747 331.603 24.168C332.008 24.8613 332.211 25.6613 332.211 26.568C332.211 27.4747 332.003 28.2747 331.587 28.968C331.182 29.6613 330.627 30.2 329.923 30.584C329.23 30.9573 328.451 31.144 327.587 31.144ZM327.587 29.192C327.992 29.192 328.371 29.096 328.723 28.904C329.086 28.7013 329.374 28.4027 329.587 28.008C329.8 27.6133 329.907 27.1333 329.907 26.568C329.907 25.7253 329.683 25.08 329.235 24.632C328.798 24.1733 328.259 23.944 327.619 23.944C326.979 23.944 326.44 24.1733 326.003 24.632C325.576 25.08 325.363 25.7253 325.363 26.568C325.363 27.4107 325.571 28.0613 325.987 28.52C326.414 28.968 326.947 29.192 327.587 29.192ZM337.79 31.144C336.937 31.144 336.169 30.9573 335.486 30.584C334.803 30.2 334.265 29.6613 333.87 28.968C333.486 28.2747 333.294 27.4747 333.294 26.568C333.294 25.6613 333.491 24.8613 333.886 24.168C334.291 23.4747 334.841 22.9413 335.534 22.568C336.227 22.184 337.001 21.992 337.854 21.992C338.707 21.992 339.481 22.184 340.174 22.568C340.867 22.9413 341.411 23.4747 341.806 24.168C342.211 24.8613 342.414 25.6613 342.414 26.568C342.414 27.4747 342.206 28.2747 341.79 28.968C341.385 29.6613 340.83 30.2 340.126 30.584C339.433 30.9573 338.654 31.144 337.79 31.144ZM337.79 29.192C338.195 29.192 338.574 29.096 338.926 28.904C339.289 28.7013 339.577 28.4027 339.79 28.008C340.003 27.6133 340.11 27.1333 340.11 26.568C340.11 25.7253 339.886 25.08 339.438 24.632C339.001 24.1733 338.462 23.944 337.822 23.944C337.182 23.944 336.643 24.1733 336.206 24.632C335.779 25.08 335.566 25.7253 335.566 26.568C335.566 27.4107 335.774 28.0613 336.19 28.52C336.617 28.968 337.15 29.192 337.79 29.192ZM346.297 19.16V31H344.057V19.16H346.297ZM353.502 22.008C354.174 22.008 354.772 22.1573 355.294 22.456C355.817 22.744 356.222 23.176 356.51 23.752C356.809 24.3173 356.958 25 356.958 25.8V31H354.718V26.104C354.718 25.4 354.542 24.8613 354.19 24.488C353.838 24.104 353.358 23.912 352.75 23.912C352.132 23.912 351.641 24.104 351.278 24.488C350.926 24.8613 350.75 25.4 350.75 26.104V31H348.51V19.16H350.75V23.24C351.038 22.856 351.422 22.5573 351.902 22.344C352.382 22.12 352.916 22.008 353.502 22.008ZM367.456 22.136V31H365.2V29.88C364.912 30.264 364.534 30.568 364.064 30.792C363.606 31.0053 363.104 31.112 362.56 31.112C361.867 31.112 361.254 30.968 360.72 30.68C360.187 30.3813 359.766 29.9493 359.456 29.384C359.158 28.808 359.008 28.1253 359.008 27.336V22.136H361.248V27.016C361.248 27.72 361.424 28.264 361.776 28.648C362.128 29.0213 362.608 29.208 363.216 29.208C363.835 29.208 364.32 29.0213 364.672 28.648C365.024 28.264 365.2 27.72 365.2 27.016V22.136H367.456ZM371.907 23.432C372.195 23.0053 372.589 22.6587 373.091 22.392C373.603 22.1253 374.184 21.992 374.835 21.992C375.592 21.992 376.275 22.1787 376.883 22.552C377.501 22.9253 377.987 23.4587 378.339 24.152C378.701 24.8347 378.883 25.6293 378.883 26.536C378.883 27.4427 378.701 28.248 378.339 28.952C377.987 29.6453 377.501 30.184 376.883 30.568C376.275 30.952 375.592 31.144 374.835 31.144C374.173 31.144 373.592 31.016 373.091 30.76C372.6 30.4933 372.205 30.152 371.907 29.736V31H369.667V19.16H371.907V23.432ZM376.595 26.536C376.595 26.0027 376.483 25.544 376.259 25.16C376.045 24.7653 375.757 24.4667 375.395 24.264C375.043 24.0613 374.659 23.96 374.243 23.96C373.837 23.96 373.453 24.0667 373.091 24.28C372.739 24.4827 372.451 24.7813 372.227 25.176C372.013 25.5707 371.907 26.0347 371.907 26.568C371.907 27.1013 372.013 27.5653 372.227 27.96C372.451 28.3547 372.739 28.6587 373.091 28.872C373.453 29.0747 373.837 29.176 374.243 29.176C374.659 29.176 375.043 29.0693 375.395 28.856C375.757 28.6427 376.045 28.3387 376.259 27.944C376.483 27.5493 376.595 27.08 376.595 26.536Z" fill="black"/>
<path d="M112.392 108.59V112.124H101.182V119.914H109.922V123.448H101.182V135H96.85V108.59H112.392ZM135.597 124.018C135.597 124.803 135.546 125.513 135.445 126.146H119.447C119.573 127.818 120.194 129.161 121.309 130.174C122.423 131.187 123.791 131.694 125.413 131.694C127.743 131.694 129.39 130.719 130.353 128.768H135.027C134.393 130.693 133.241 132.277 131.569 133.518C129.922 134.734 127.87 135.342 125.413 135.342C123.411 135.342 121.613 134.899 120.017 134.012C118.446 133.1 117.205 131.833 116.293 130.212C115.406 128.565 114.963 126.665 114.963 124.512C114.963 122.359 115.393 120.471 116.255 118.85C117.141 117.203 118.37 115.937 119.941 115.05C121.537 114.163 123.361 113.72 125.413 113.72C127.389 113.72 129.149 114.151 130.695 115.012C132.24 115.873 133.443 117.089 134.305 118.66C135.166 120.205 135.597 121.991 135.597 124.018ZM131.075 122.65C131.049 121.054 130.479 119.775 129.365 118.812C128.25 117.849 126.869 117.368 125.223 117.368C123.728 117.368 122.449 117.849 121.385 118.812C120.321 119.749 119.687 121.029 119.485 122.65H131.075ZM144.192 106.88V135H139.86V106.88H144.192ZM148.435 124.436C148.435 122.333 148.866 120.471 149.727 118.85C150.614 117.229 151.805 115.975 153.299 115.088C154.819 114.176 156.491 113.72 158.315 113.72C159.962 113.72 161.393 114.049 162.609 114.708C163.851 115.341 164.839 116.139 165.573 117.102V114.062H169.943V135H165.573V131.884C164.839 132.872 163.838 133.695 162.571 134.354C161.305 135.013 159.861 135.342 158.239 135.342C156.441 135.342 154.794 134.886 153.299 133.974C151.805 133.037 150.614 131.745 149.727 130.098C148.866 128.426 148.435 126.539 148.435 124.436ZM165.573 124.512C165.573 123.068 165.269 121.814 164.661 120.75C164.079 119.686 163.306 118.875 162.343 118.318C161.381 117.761 160.342 117.482 159.227 117.482C158.113 117.482 157.074 117.761 156.111 118.318C155.149 118.85 154.363 119.648 153.755 120.712C153.173 121.751 152.881 122.992 152.881 124.436C152.881 125.88 153.173 127.147 153.755 128.236C154.363 129.325 155.149 130.161 156.111 130.744C157.099 131.301 158.138 131.58 159.227 131.58C160.342 131.58 161.381 131.301 162.343 130.744C163.306 130.187 164.079 129.376 164.661 128.312C165.269 127.223 165.573 125.956 165.573 124.512ZM186.197 113.72C187.844 113.72 189.313 114.062 190.605 114.746C191.923 115.43 192.949 116.443 193.683 117.786C194.418 119.129 194.785 120.75 194.785 122.65V135H190.491V123.296C190.491 121.421 190.023 119.99 189.085 119.002C188.148 117.989 186.869 117.482 185.247 117.482C183.626 117.482 182.334 117.989 181.371 119.002C180.434 119.99 179.965 121.421 179.965 123.296V135H175.633V114.062H179.965V116.456C180.675 115.595 181.574 114.923 182.663 114.442C183.778 113.961 184.956 113.72 186.197 113.72ZM225.657 113.72C227.304 113.72 228.773 114.062 230.065 114.746C231.382 115.43 232.408 116.443 233.143 117.786C233.903 119.129 234.283 120.75 234.283 122.65V135H229.989V123.296C229.989 121.421 229.52 119.99 228.583 119.002C227.646 117.989 226.366 117.482 224.745 117.482C223.124 117.482 221.832 117.989 220.869 119.002C219.932 119.99 219.463 121.421 219.463 123.296V135H215.169V123.296C215.169 121.421 214.7 119.99 213.763 119.002C212.826 117.989 211.546 117.482 209.925 117.482C208.304 117.482 207.012 117.989 206.049 119.002C205.112 119.99 204.643 121.421 204.643 123.296V135H200.311V114.062H204.643V116.456C205.352 115.595 206.252 114.923 207.341 114.442C208.43 113.961 209.596 113.72 210.837 113.72C212.509 113.72 214.004 114.075 215.321 114.784C216.638 115.493 217.652 116.519 218.361 117.862C218.994 116.595 219.982 115.595 221.325 114.86C222.668 114.1 224.112 113.72 225.657 113.72ZM238.351 124.436C238.351 122.333 238.782 120.471 239.643 118.85C240.53 117.229 241.721 115.975 243.215 115.088C244.735 114.176 246.407 113.72 248.231 113.72C249.878 113.72 251.309 114.049 252.525 114.708C253.767 115.341 254.755 116.139 255.489 117.102V114.062H259.859V135H255.489V131.884C254.755 132.872 253.754 133.695 252.487 134.354C251.221 135.013 249.777 135.342 248.155 135.342C246.357 135.342 244.71 134.886 243.215 133.974C241.721 133.037 240.53 131.745 239.643 130.098C238.782 128.426 238.351 126.539 238.351 124.436ZM255.489 124.512C255.489 123.068 255.185 121.814 254.577 120.75C253.995 119.686 253.222 118.875 252.259 118.318C251.297 117.761 250.258 117.482 249.143 117.482C248.029 117.482 246.99 117.761 246.027 118.318C245.065 118.85 244.279 119.648 243.671 120.712C243.089 121.751 242.797 122.992 242.797 124.436C242.797 125.88 243.089 127.147 243.671 128.236C244.279 129.325 245.065 130.161 246.027 130.744C247.015 131.301 248.054 131.58 249.143 131.58C250.258 131.58 251.297 131.301 252.259 130.744C253.222 130.187 253.995 129.376 254.577 128.312C255.185 127.223 255.489 125.956 255.489 124.512ZM246.559 111.44C245.926 111.44 245.381 111.225 244.925 110.794C244.495 110.338 244.279 109.793 244.279 109.16C244.279 108.527 244.495 107.995 244.925 107.564C245.381 107.108 245.926 106.88 246.559 106.88C247.193 106.88 247.725 107.108 248.155 107.564C248.611 107.995 248.839 108.527 248.839 109.16C248.839 109.793 248.611 110.338 248.155 110.794C247.725 111.225 247.193 111.44 246.559 111.44ZM253.095 111.44C252.462 111.44 251.917 111.225 251.461 110.794C251.031 110.338 250.815 109.793 250.815 109.16C250.815 108.527 251.031 107.995 251.461 107.564C251.917 107.108 252.462 106.88 253.095 106.88C253.729 106.88 254.261 107.108 254.691 107.564C255.147 107.995 255.375 108.527 255.375 109.16C255.375 109.793 255.147 110.338 254.691 110.794C254.261 111.225 253.729 111.44 253.095 111.44ZM269.881 106.88V135H265.549V106.88H269.881ZM274.125 124.436C274.125 122.333 274.555 120.471 275.417 118.85C276.303 117.229 277.494 115.975 278.989 115.088C280.509 114.176 282.193 113.72 284.043 113.72C285.411 113.72 286.753 114.024 288.071 114.632C289.413 115.215 290.477 116 291.263 116.988V106.88H295.633V135H291.263V131.846C290.553 132.859 289.565 133.695 288.299 134.354C287.057 135.013 285.626 135.342 284.005 135.342C282.181 135.342 280.509 134.886 278.989 133.974C277.494 133.037 276.303 131.745 275.417 130.098C274.555 128.426 274.125 126.539 274.125 124.436ZM291.263 124.512C291.263 123.068 290.959 121.814 290.351 120.75C289.768 119.686 288.995 118.875 288.033 118.318C287.07 117.761 286.031 117.482 284.917 117.482C283.802 117.482 282.763 117.761 281.801 118.318C280.838 118.85 280.053 119.648 279.445 120.712C278.862 121.751 278.571 122.992 278.571 124.436C278.571 125.88 278.862 127.147 279.445 128.236C280.053 129.325 280.838 130.161 281.801 130.744C282.789 131.301 283.827 131.58 284.917 131.58C286.031 131.58 287.07 131.301 288.033 130.744C288.995 130.187 289.768 129.376 290.351 128.312C290.959 127.223 291.263 125.956 291.263 124.512Z" fill="white"/>
<path d="M103.68 225.1V226.96H97.78V231.06H102.38V232.92H97.78V239H95.5V225.1H103.68ZM115.893 233.22C115.893 233.633 115.866 234.007 115.813 234.34H107.393C107.46 235.22 107.786 235.927 108.373 236.46C108.96 236.993 109.68 237.26 110.533 237.26C111.76 237.26 112.626 236.747 113.133 235.72H115.593C115.26 236.733 114.653 237.567 113.773 238.22C112.906 238.86 111.826 239.18 110.533 239.18C109.48 239.18 108.533 238.947 107.693 238.48C106.866 238 106.213 237.333 105.733 236.48C105.266 235.613 105.033 234.613 105.033 233.48C105.033 232.347 105.26 231.353 105.713 230.5C106.18 229.633 106.826 228.967 107.653 228.5C108.493 228.033 109.453 227.8 110.533 227.8C111.573 227.8 112.5 228.027 113.313 228.48C114.126 228.933 114.76 229.573 115.213 230.4C115.666 231.213 115.893 232.153 115.893 233.22ZM113.513 232.5C113.5 231.66 113.2 230.987 112.613 230.48C112.026 229.973 111.3 229.72 110.433 229.72C109.646 229.72 108.973 229.973 108.413 230.48C107.853 230.973 107.52 231.647 107.413 232.5H113.513ZM120.417 224.2V239H118.137V224.2H120.417ZM133.51 233.22C133.51 233.633 133.483 234.007 133.43 234.34H125.01C125.077 235.22 125.403 235.927 125.99 236.46C126.577 236.993 127.297 237.26 128.15 237.26C129.377 237.26 130.243 236.747 130.75 235.72H133.21C132.877 236.733 132.27 237.567 131.39 238.22C130.523 238.86 129.443 239.18 128.15 239.18C127.097 239.18 126.15 238.947 125.31 238.48C124.483 238 123.83 237.333 123.35 236.48C122.883 235.613 122.65 234.613 122.65 233.48C122.65 232.347 122.877 231.353 123.33 230.5C123.797 229.633 124.443 228.967 125.27 228.5C126.11 228.033 127.07 227.8 128.15 227.8C129.19 227.8 130.117 228.027 130.93 228.48C131.743 228.933 132.377 229.573 132.83 230.4C133.283 231.213 133.51 232.153 133.51 233.22ZM131.13 232.5C131.117 231.66 130.817 230.987 130.23 230.48C129.643 229.973 128.917 229.72 128.05 229.72C127.263 229.72 126.59 229.973 126.03 230.48C125.47 230.973 125.137 231.647 125.03 232.5H131.13ZM138.414 229.84V235.94C138.414 236.353 138.507 236.653 138.694 236.84C138.894 237.013 139.227 237.1 139.694 237.1H141.094V239H139.294C138.267 239 137.481 238.76 136.934 238.28C136.387 237.8 136.114 237.02 136.114 235.94V229.84H134.814V227.98H136.114V225.24H138.414V227.98H141.094V229.84H138.414ZM147.631 233.44C147.631 232.333 147.857 231.353 148.311 230.5C148.777 229.647 149.404 228.987 150.191 228.52C150.991 228.04 151.871 227.8 152.831 227.8C153.697 227.8 154.451 227.973 155.091 228.32C155.744 228.653 156.264 229.073 156.651 229.58V227.98H158.951V239H156.651V237.36C156.264 237.88 155.737 238.313 155.071 238.66C154.404 239.007 153.644 239.18 152.791 239.18C151.844 239.18 150.977 238.94 150.191 238.46C149.404 237.967 148.777 237.287 148.311 236.42C147.857 235.54 147.631 234.547 147.631 233.44ZM156.651 233.48C156.651 232.72 156.491 232.06 156.171 231.5C155.864 230.94 155.457 230.513 154.951 230.22C154.444 229.927 153.897 229.78 153.311 229.78C152.724 229.78 152.177 229.927 151.671 230.22C151.164 230.5 150.751 230.92 150.431 231.48C150.124 232.027 149.971 232.68 149.971 233.44C149.971 234.2 150.124 234.867 150.431 235.44C150.751 236.013 151.164 236.453 151.671 236.76C152.191 237.053 152.737 237.2 153.311 237.2C153.897 237.2 154.444 237.053 154.951 236.76C155.457 236.467 155.864 236.04 156.171 235.48C156.491 234.907 156.651 234.24 156.651 233.48ZM151.951 226.6C151.617 226.6 151.331 226.487 151.091 226.26C150.864 226.02 150.751 225.733 150.751 225.4C150.751 225.067 150.864 224.787 151.091 224.56C151.331 224.32 151.617 224.2 151.951 224.2C152.284 224.2 152.564 224.32 152.791 224.56C153.031 224.787 153.151 225.067 153.151 225.4C153.151 225.733 153.031 226.02 152.791 226.26C152.564 226.487 152.284 226.6 151.951 226.6ZM155.391 226.6C155.057 226.6 154.771 226.487 154.531 226.26C154.304 226.02 154.191 225.733 154.191 225.4C154.191 225.067 154.304 224.787 154.531 224.56C154.771 224.32 155.057 224.2 155.391 224.2C155.724 224.2 156.004 224.32 156.231 224.56C156.471 224.787 156.591 225.067 156.591 225.4C156.591 225.733 156.471 226.02 156.231 226.26C156.004 226.487 155.724 226.6 155.391 226.6ZM164.225 229.58C164.559 229.02 164.999 228.587 165.545 228.28C166.105 227.96 166.765 227.8 167.525 227.8V230.16H166.945C166.052 230.16 165.372 230.387 164.905 230.84C164.452 231.293 164.225 232.08 164.225 233.2V239H161.945V227.98H164.225V229.58ZM177.096 229.58C177.43 229.02 177.87 228.587 178.416 228.28C178.976 227.96 179.636 227.8 180.396 227.8V230.16H179.816C178.923 230.16 178.243 230.387 177.776 230.84C177.323 231.293 177.096 232.08 177.096 233.2V239H174.816V227.98H177.096V229.58ZM181.732 233.44C181.732 232.333 181.959 231.353 182.412 230.5C182.879 229.647 183.506 228.987 184.292 228.52C185.092 228.04 185.972 227.8 186.932 227.8C187.799 227.8 188.552 227.973 189.192 228.32C189.846 228.653 190.366 229.073 190.752 229.58V227.98H193.052V239H190.752V237.36C190.366 237.88 189.839 238.313 189.172 238.66C188.506 239.007 187.746 239.18 186.892 239.18C185.946 239.18 185.079 238.94 184.292 238.46C183.506 237.967 182.879 237.287 182.412 236.42C181.959 235.54 181.732 234.547 181.732 233.44ZM190.752 233.48C190.752 232.72 190.592 232.06 190.272 231.5C189.966 230.94 189.559 230.513 189.052 230.22C188.546 229.927 187.999 229.78 187.412 229.78C186.826 229.78 186.279 229.927 185.772 230.22C185.266 230.5 184.852 230.92 184.532 231.48C184.226 232.027 184.072 232.68 184.072 233.44C184.072 234.2 184.226 234.867 184.532 235.44C184.852 236.013 185.266 236.453 185.772 236.76C186.292 237.053 186.839 237.2 187.412 237.2C187.999 237.2 188.546 237.053 189.052 236.76C189.559 236.467 189.966 236.04 190.272 235.48C190.592 234.907 190.752 234.24 190.752 233.48ZM198.327 229.6C198.714 229.093 199.24 228.667 199.907 228.32C200.574 227.973 201.327 227.8 202.167 227.8C203.127 227.8 204 228.04 204.787 228.52C205.587 228.987 206.214 229.647 206.667 230.5C207.12 231.353 207.347 232.333 207.347 233.44C207.347 234.547 207.12 235.54 206.667 236.42C206.214 237.287 205.587 237.967 204.787 238.46C204 238.94 203.127 239.18 202.167 239.18C201.327 239.18 200.58 239.013 199.927 238.68C199.274 238.333 198.74 237.907 198.327 237.4V244.24H196.047V227.98H198.327V229.6ZM205.027 233.44C205.027 232.68 204.867 232.027 204.547 231.48C204.24 230.92 203.827 230.5 203.307 230.22C202.8 229.927 202.254 229.78 201.667 229.78C201.094 229.78 200.547 229.927 200.027 230.22C199.52 230.513 199.107 230.94 198.787 231.5C198.48 232.06 198.327 232.72 198.327 233.48C198.327 234.24 198.48 234.907 198.787 235.48C199.107 236.04 199.52 236.467 200.027 236.76C200.547 237.053 201.094 237.2 201.667 237.2C202.254 237.2 202.8 237.053 203.307 236.76C203.827 236.453 204.24 236.013 204.547 235.44C204.867 234.867 205.027 234.2 205.027 233.44ZM211.882 229.6C212.268 229.093 212.795 228.667 213.462 228.32C214.128 227.973 214.882 227.8 215.722 227.8C216.682 227.8 217.555 228.04 218.342 228.52C219.142 228.987 219.768 229.647 220.222 230.5C220.675 231.353 220.902 232.333 220.902 233.44C220.902 234.547 220.675 235.54 220.222 236.42C219.768 237.287 219.142 237.967 218.342 238.46C217.555 238.94 216.682 239.18 215.722 239.18C214.882 239.18 214.135 239.013 213.482 238.68C212.828 238.333 212.295 237.907 211.882 237.4V244.24H209.602V227.98H211.882V229.6ZM218.582 233.44C218.582 232.68 218.422 232.027 218.102 231.48C217.795 230.92 217.382 230.5 216.862 230.22C216.355 229.927 215.808 229.78 215.222 229.78C214.648 229.78 214.102 229.927 213.582 230.22C213.075 230.513 212.662 230.94 212.342 231.5C212.035 232.06 211.882 232.72 211.882 233.48C211.882 234.24 212.035 234.907 212.342 235.48C212.662 236.04 213.075 236.467 213.582 236.76C214.102 237.053 214.648 237.2 215.222 237.2C215.808 237.2 216.355 237.053 216.862 236.76C217.382 236.453 217.795 236.013 218.102 235.44C218.422 234.867 218.582 234.2 218.582 233.44ZM227.936 239.18C226.896 239.18 225.956 238.947 225.116 238.48C224.276 238 223.616 237.333 223.136 236.48C222.656 235.613 222.416 234.613 222.416 233.48C222.416 232.36 222.663 231.367 223.156 230.5C223.65 229.633 224.323 228.967 225.176 228.5C226.03 228.033 226.983 227.8 228.036 227.8C229.09 227.8 230.043 228.033 230.896 228.5C231.75 228.967 232.423 229.633 232.916 230.5C233.41 231.367 233.656 232.36 233.656 233.48C233.656 234.6 233.403 235.593 232.896 236.46C232.39 237.327 231.696 238 230.816 238.48C229.95 238.947 228.99 239.18 227.936 239.18ZM227.936 237.2C228.523 237.2 229.07 237.06 229.576 236.78C230.096 236.5 230.516 236.08 230.836 235.52C231.156 234.96 231.316 234.28 231.316 233.48C231.316 232.68 231.163 232.007 230.856 231.46C230.55 230.9 230.143 230.48 229.636 230.2C229.13 229.92 228.583 229.78 227.996 229.78C227.41 229.78 226.863 229.92 226.356 230.2C225.863 230.48 225.47 230.9 225.176 231.46C224.883 232.007 224.736 232.68 224.736 233.48C224.736 234.667 225.036 235.587 225.636 236.24C226.25 236.88 227.016 237.2 227.936 237.2ZM238.19 229.58C238.523 229.02 238.963 228.587 239.51 228.28C240.07 227.96 240.73 227.8 241.49 227.8V230.16H240.91C240.017 230.16 239.337 230.387 238.87 230.84C238.417 231.293 238.19 232.08 238.19 233.2V239H235.91V227.98H238.19V229.58ZM246.246 229.84V235.94C246.246 236.353 246.339 236.653 246.526 236.84C246.726 237.013 247.059 237.1 247.526 237.1H248.926V239H247.126C246.099 239 245.313 238.76 244.766 238.28C244.219 237.8 243.946 237.02 243.946 235.94V229.84H242.646V227.98H243.946V225.24H246.246V227.98H248.926V229.84H246.246ZM261.127 233.22C261.127 233.633 261.101 234.007 261.047 234.34H252.627C252.694 235.22 253.021 235.927 253.607 236.46C254.194 236.993 254.914 237.26 255.767 237.26C256.994 237.26 257.861 236.747 258.367 235.72H260.827C260.494 236.733 259.887 237.567 259.007 238.22C258.141 238.86 257.061 239.18 255.767 239.18C254.714 239.18 253.767 238.947 252.927 238.48C252.101 238 251.447 237.333 250.967 236.48C250.501 235.613 250.267 234.613 250.267 233.48C250.267 232.347 250.494 231.353 250.947 230.5C251.414 229.633 252.061 228.967 252.887 228.5C253.727 228.033 254.687 227.8 255.767 227.8C256.807 227.8 257.734 228.027 258.547 228.48C259.361 228.933 259.994 229.573 260.447 230.4C260.901 231.213 261.127 232.153 261.127 233.22ZM258.747 232.5C258.734 231.66 258.434 230.987 257.847 230.48C257.261 229.973 256.534 229.72 255.667 229.72C254.881 229.72 254.207 229.973 253.647 230.48C253.087 230.973 252.754 231.647 252.647 232.5H258.747ZM265.651 229.58C265.984 229.02 266.424 228.587 266.971 228.28C267.531 227.96 268.191 227.8 268.951 227.8V230.16H268.371C267.478 230.16 266.798 230.387 266.331 230.84C265.878 231.293 265.651 232.08 265.651 233.2V239H263.371V227.98H265.651V229.58ZM270.287 233.44C270.287 232.333 270.514 231.353 270.967 230.5C271.434 229.647 272.06 228.987 272.847 228.52C273.647 228.04 274.527 227.8 275.487 227.8C276.354 227.8 277.107 227.973 277.747 228.32C278.4 228.653 278.92 229.073 279.307 229.58V227.98H281.607V239H279.307V237.36C278.92 237.88 278.394 238.313 277.727 238.66C277.06 239.007 276.3 239.18 275.447 239.18C274.5 239.18 273.634 238.94 272.847 238.46C272.06 237.967 271.434 237.287 270.967 236.42C270.514 235.54 270.287 234.547 270.287 233.44ZM279.307 233.48C279.307 232.72 279.147 232.06 278.827 231.5C278.52 230.94 278.114 230.513 277.607 230.22C277.1 229.927 276.554 229.78 275.967 229.78C275.38 229.78 274.834 229.927 274.327 230.22C273.82 230.5 273.407 230.92 273.087 231.48C272.78 232.027 272.627 232.68 272.627 233.44C272.627 234.2 272.78 234.867 273.087 235.44C273.407 236.013 273.82 236.453 274.327 236.76C274.847 237.053 275.394 237.2 275.967 237.2C276.554 237.2 277.1 237.053 277.607 236.76C278.114 236.467 278.52 236.04 278.827 235.48C279.147 234.907 279.307 234.24 279.307 233.48ZM287.262 229.84V235.94C287.262 236.353 287.355 236.653 287.542 236.84C287.742 237.013 288.075 237.1 288.542 237.1H289.942V239H288.142C287.115 239 286.328 238.76 285.782 238.28C285.235 237.8 284.962 237.02 284.962 235.94V229.84H283.662V227.98H284.962V225.24H287.262V227.98H289.942V229.84H287.262ZM100.28 269.18C99.24 269.18 98.3 268.947 97.46 268.48C96.62 268 95.96 267.333 95.48 266.48C95 265.613 94.76 264.613 94.76 263.48C94.76 262.36 95.0067 261.367 95.5 260.5C95.9933 259.633 96.6667 258.967 97.52 258.5C98.3733 258.033 99.3267 257.8 100.38 257.8C101.433 257.8 102.387 258.033 103.24 258.5C104.093 258.967 104.767 259.633 105.26 260.5C105.753 261.367 106 262.36 106 263.48C106 264.6 105.747 265.593 105.24 266.46C104.733 267.327 104.04 268 103.16 268.48C102.293 268.947 101.333 269.18 100.28 269.18ZM100.28 267.2C100.867 267.2 101.413 267.06 101.92 266.78C102.44 266.5 102.86 266.08 103.18 265.52C103.5 264.96 103.66 264.28 103.66 263.48C103.66 262.68 103.507 262.007 103.2 261.46C102.893 260.9 102.487 260.48 101.98 260.2C101.473 259.92 100.927 259.78 100.34 259.78C99.7533 259.78 99.2067 259.92 98.7 260.2C98.2067 260.48 97.8133 260.9 97.52 261.46C97.2267 262.007 97.08 262.68 97.08 263.48C97.08 264.667 97.38 265.587 97.98 266.24C98.5933 266.88 99.36 267.2 100.28 267.2ZM107.494 263.48C107.494 262.347 107.721 261.353 108.174 260.5C108.641 259.633 109.281 258.967 110.094 258.5C110.907 258.033 111.841 257.8 112.894 257.8C114.227 257.8 115.327 258.12 116.194 258.76C117.074 259.387 117.667 260.287 117.974 261.46H115.514C115.314 260.913 114.994 260.487 114.554 260.18C114.114 259.873 113.561 259.72 112.894 259.72C111.961 259.72 111.214 260.053 110.654 260.72C110.107 261.373 109.834 262.293 109.834 263.48C109.834 264.667 110.107 265.593 110.654 266.26C111.214 266.927 111.961 267.26 112.894 267.26C114.214 267.26 115.087 266.68 115.514 265.52H117.974C117.654 266.64 117.054 267.533 116.174 268.2C115.294 268.853 114.201 269.18 112.894 269.18C111.841 269.18 110.907 268.947 110.094 268.48C109.281 268 108.641 267.333 108.174 266.48C107.721 265.613 107.494 264.613 107.494 263.48ZM125.946 257.8C126.786 257.8 127.533 257.98 128.186 258.34C128.853 258.7 129.373 259.233 129.746 259.94C130.133 260.647 130.326 261.5 130.326 262.5V269H128.066V262.84C128.066 261.853 127.819 261.1 127.326 260.58C126.833 260.047 126.159 259.78 125.306 259.78C124.453 259.78 123.773 260.047 123.266 260.58C122.773 261.1 122.526 261.853 122.526 262.84V269H120.246V254.2H122.526V259.26C122.913 258.793 123.399 258.433 123.986 258.18C124.586 257.927 125.239 257.8 125.946 257.8ZM142.79 263.5L147.87 269H144.79L140.71 264.26V269H138.43V254.2H140.71V262.8L144.71 257.98H147.87L142.79 263.5ZM154.284 269.18C153.244 269.18 152.304 268.947 151.464 268.48C150.624 268 149.964 267.333 149.484 266.48C149.004 265.613 148.764 264.613 148.764 263.48C148.764 262.36 149.011 261.367 149.504 260.5C149.997 259.633 150.671 258.967 151.524 258.5C152.377 258.033 153.331 257.8 154.384 257.8C155.437 257.8 156.391 258.033 157.244 258.5C158.097 258.967 158.771 259.633 159.264 260.5C159.757 261.367 160.004 262.36 160.004 263.48C160.004 264.6 159.751 265.593 159.244 266.46C158.737 267.327 158.044 268 157.164 268.48C156.297 268.947 155.337 269.18 154.284 269.18ZM154.284 267.2C154.871 267.2 155.417 267.06 155.924 266.78C156.444 266.5 156.864 266.08 157.184 265.52C157.504 264.96 157.664 264.28 157.664 263.48C157.664 262.68 157.511 262.007 157.204 261.46C156.897 260.9 156.491 260.48 155.984 260.2C155.477 259.92 154.931 259.78 154.344 259.78C153.757 259.78 153.211 259.92 152.704 260.2C152.211 260.48 151.817 260.9 151.524 261.46C151.231 262.007 151.084 262.68 151.084 263.48C151.084 264.667 151.384 265.587 151.984 266.24C152.597 266.88 153.364 267.2 154.284 267.2ZM175.598 257.8C176.464 257.8 177.238 257.98 177.918 258.34C178.611 258.7 179.151 259.233 179.538 259.94C179.938 260.647 180.138 261.5 180.138 262.5V269H177.878V262.84C177.878 261.853 177.631 261.1 177.138 260.58C176.644 260.047 175.971 259.78 175.118 259.78C174.264 259.78 173.584 260.047 173.078 260.58C172.584 261.1 172.338 261.853 172.338 262.84V269H170.078V262.84C170.078 261.853 169.831 261.1 169.338 260.58C168.844 260.047 168.171 259.78 167.318 259.78C166.464 259.78 165.784 260.047 165.278 260.58C164.784 261.1 164.538 261.853 164.538 262.84V269H162.258V257.98H164.538V259.24C164.911 258.787 165.384 258.433 165.958 258.18C166.531 257.927 167.144 257.8 167.798 257.8C168.678 257.8 169.464 257.987 170.158 258.36C170.851 258.733 171.384 259.273 171.758 259.98C172.091 259.313 172.611 258.787 173.318 258.4C174.024 258 174.784 257.8 175.598 257.8ZM196.379 257.8C197.246 257.8 198.019 257.98 198.699 258.34C199.392 258.7 199.932 259.233 200.319 259.94C200.719 260.647 200.919 261.5 200.919 262.5V269H198.659V262.84C198.659 261.853 198.412 261.1 197.919 260.58C197.426 260.047 196.752 259.78 195.899 259.78C195.046 259.78 194.366 260.047 193.859 260.58C193.366 261.1 193.119 261.853 193.119 262.84V269H190.859V262.84C190.859 261.853 190.612 261.1 190.119 260.58C189.626 260.047 188.952 259.78 188.099 259.78C187.246 259.78 186.566 260.047 186.059 260.58C185.566 261.1 185.319 261.853 185.319 262.84V269H183.039V257.98H185.319V259.24C185.692 258.787 186.166 258.433 186.739 258.18C187.312 257.927 187.926 257.8 188.579 257.8C189.459 257.8 190.246 257.987 190.939 258.36C191.632 258.733 192.166 259.273 192.539 259.98C192.872 259.313 193.392 258.787 194.099 258.4C194.806 258 195.566 257.8 196.379 257.8ZM213.92 263.22C213.92 263.633 213.894 264.007 213.84 264.34H205.42C205.487 265.22 205.814 265.927 206.4 266.46C206.987 266.993 207.707 267.26 208.56 267.26C209.787 267.26 210.654 266.747 211.16 265.72H213.62C213.287 266.733 212.68 267.567 211.8 268.22C210.934 268.86 209.854 269.18 208.56 269.18C207.507 269.18 206.56 268.947 205.72 268.48C204.894 268 204.24 267.333 203.76 266.48C203.294 265.613 203.06 264.613 203.06 263.48C203.06 262.347 203.287 261.353 203.74 260.5C204.207 259.633 204.854 258.967 205.68 258.5C206.52 258.033 207.48 257.8 208.56 257.8C209.6 257.8 210.527 258.027 211.34 258.48C212.154 258.933 212.787 259.573 213.24 260.4C213.694 261.213 213.92 262.153 213.92 263.22ZM211.54 262.5C211.527 261.66 211.227 260.987 210.64 260.48C210.054 259.973 209.327 259.72 208.46 259.72C207.674 259.72 207 259.973 206.44 260.48C205.88 260.973 205.547 261.647 205.44 262.5H211.54ZM218.444 259.58C218.777 259.02 219.217 258.587 219.764 258.28C220.324 257.96 220.984 257.8 221.744 257.8V260.16H221.164C220.271 260.16 219.591 260.387 219.124 260.84C218.671 261.293 218.444 262.08 218.444 263.2V269H216.164V257.98H218.444V259.58ZM228.275 263.44C228.275 262.333 228.502 261.353 228.955 260.5C229.422 259.647 230.048 258.987 230.835 258.52C231.635 258.04 232.515 257.8 233.475 257.8C234.342 257.8 235.095 257.973 235.735 258.32C236.388 258.653 236.908 259.073 237.295 259.58V257.98H239.595V269H237.295V267.36C236.908 267.88 236.382 268.313 235.715 268.66C235.048 269.007 234.288 269.18 233.435 269.18C232.488 269.18 231.622 268.94 230.835 268.46C230.048 267.967 229.422 267.287 228.955 266.42C228.502 265.54 228.275 264.547 228.275 263.44ZM237.295 263.48C237.295 262.72 237.135 262.06 236.815 261.5C236.508 260.94 236.102 260.513 235.595 260.22C235.088 259.927 234.542 259.78 233.955 259.78C233.368 259.78 232.822 259.927 232.315 260.22C231.808 260.5 231.395 260.92 231.075 261.48C230.768 262.027 230.615 262.68 230.615 263.44C230.615 264.2 230.768 264.867 231.075 265.44C231.395 266.013 231.808 266.453 232.315 266.76C232.835 267.053 233.382 267.2 233.955 267.2C234.542 267.2 235.088 267.053 235.595 266.76C236.102 266.467 236.508 266.04 236.815 265.48C237.135 264.907 237.295 264.24 237.295 263.48ZM245.25 259.84V265.94C245.25 266.353 245.343 266.653 245.53 266.84C245.73 267.013 246.063 267.1 246.53 267.1H247.93V269H246.13C245.103 269 244.317 268.76 243.77 268.28C243.223 267.8 242.95 267.02 242.95 265.94V259.84H241.65V257.98H242.95V255.24H245.25V257.98H247.93V259.84H245.25ZM252.691 259.84V265.94C252.691 266.353 252.785 266.653 252.971 266.84C253.171 267.013 253.505 267.1 253.971 267.1H255.371V269H253.571C252.545 269 251.758 268.76 251.211 268.28C250.665 267.8 250.391 267.02 250.391 265.94V259.84H249.091V257.98H250.391V255.24H252.691V257.98H255.371V259.84H252.691ZM261.908 263.44C261.908 262.333 262.135 261.353 262.588 260.5C263.055 259.647 263.681 258.987 264.468 258.52C265.268 258.04 266.148 257.8 267.108 257.8C267.975 257.8 268.728 257.973 269.368 258.32C270.021 258.653 270.541 259.073 270.928 259.58V257.98H273.228V269H270.928V267.36C270.541 267.88 270.015 268.313 269.348 268.66C268.681 269.007 267.921 269.18 267.068 269.18C266.121 269.18 265.255 268.94 264.468 268.46C263.681 267.967 263.055 267.287 262.588 266.42C262.135 265.54 261.908 264.547 261.908 263.44ZM270.928 263.48C270.928 262.72 270.768 262.06 270.448 261.5C270.141 260.94 269.735 260.513 269.228 260.22C268.721 259.927 268.175 259.78 267.588 259.78C267.001 259.78 266.455 259.927 265.948 260.22C265.441 260.5 265.028 260.92 264.708 261.48C264.401 262.027 264.248 262.68 264.248 263.44C264.248 264.2 264.401 264.867 264.708 265.44C265.028 266.013 265.441 266.453 265.948 266.76C266.468 267.053 267.015 267.2 267.588 267.2C268.175 267.2 268.721 267.053 269.228 266.76C269.735 266.467 270.141 266.04 270.448 265.48C270.768 264.907 270.928 264.24 270.928 263.48ZM270.208 254.72C270.208 255.373 269.988 255.9 269.548 256.3C269.121 256.7 268.588 256.9 267.948 256.9C267.321 256.9 266.788 256.7 266.348 256.3C265.921 255.9 265.708 255.373 265.708 254.72C265.708 254.053 265.921 253.52 266.348 253.12C266.788 252.72 267.321 252.52 267.948 252.52C268.588 252.52 269.121 252.72 269.548 253.12C269.988 253.52 270.208 254.053 270.208 254.72ZM268.928 254.7C268.928 254.393 268.835 254.147 268.648 253.96C268.461 253.773 268.228 253.68 267.948 253.68C267.681 253.68 267.455 253.773 267.268 253.96C267.081 254.147 266.988 254.393 266.988 254.7C266.988 254.993 267.081 255.24 267.268 255.44C267.455 255.627 267.681 255.72 267.948 255.72C268.228 255.72 268.461 255.627 268.648 255.44C268.835 255.24 268.928 254.993 268.928 254.7ZM278.883 259.84V265.94C278.883 266.353 278.976 266.653 279.163 266.84C279.363 267.013 279.696 267.1 280.163 267.1H281.563V269H279.763C278.736 269 277.949 268.76 277.403 268.28C276.856 267.8 276.583 267.02 276.583 265.94V259.84H275.283V257.98H276.583V255.24H278.883V257.98H281.563V259.84H278.883ZM288.104 257.8C288.957 257.8 289.711 257.973 290.364 258.32C291.031 258.653 291.551 259.073 291.924 259.58V257.98H294.224V269.18C294.224 270.193 294.011 271.093 293.584 271.88C293.157 272.68 292.537 273.307 291.724 273.76C290.924 274.213 289.964 274.44 288.844 274.44C287.351 274.44 286.111 274.087 285.124 273.38C284.137 272.687 283.577 271.74 283.444 270.54H285.704C285.877 271.113 286.244 271.573 286.804 271.92C287.377 272.28 288.057 272.46 288.844 272.46C289.764 272.46 290.504 272.18 291.064 271.62C291.637 271.06 291.924 270.247 291.924 269.18V267.34C291.537 267.86 291.011 268.3 290.344 268.66C289.691 269.007 288.944 269.18 288.104 269.18C287.144 269.18 286.264 268.94 285.464 268.46C284.677 267.967 284.051 267.287 283.584 266.42C283.131 265.54 282.904 264.547 282.904 263.44C282.904 262.333 283.131 261.353 283.584 260.5C284.051 259.647 284.677 258.987 285.464 258.52C286.264 258.04 287.144 257.8 288.104 257.8ZM291.924 263.48C291.924 262.72 291.764 262.06 291.444 261.5C291.137 260.94 290.731 260.513 290.224 260.22C289.717 259.927 289.171 259.78 288.584 259.78C287.997 259.78 287.451 259.927 286.944 260.22C286.437 260.5 286.024 260.92 285.704 261.48C285.397 262.027 285.244 262.68 285.244 263.44C285.244 264.2 285.397 264.867 285.704 265.44C286.024 266.013 286.437 266.453 286.944 266.76C287.464 267.053 288.011 267.2 288.584 267.2C289.171 267.2 289.717 267.053 290.224 266.76C290.731 266.467 291.137 266.04 291.444 265.48C291.764 264.907 291.924 264.24 291.924 263.48ZM296.459 263.44C296.459 262.333 296.685 261.353 297.139 260.5C297.605 259.647 298.232 258.987 299.019 258.52C299.819 258.04 300.699 257.8 301.659 257.8C302.525 257.8 303.279 257.973 303.919 258.32C304.572 258.653 305.092 259.073 305.479 259.58V257.98H307.779V269H305.479V267.36C305.092 267.88 304.565 268.313 303.899 268.66C303.232 269.007 302.472 269.18 301.619 269.18C300.672 269.18 299.805 268.94 299.019 268.46C298.232 267.967 297.605 267.287 297.139 266.42C296.685 265.54 296.459 264.547 296.459 263.44ZM305.479 263.48C305.479 262.72 305.319 262.06 304.999 261.5C304.692 260.94 304.285 260.513 303.779 260.22C303.272 259.927 302.725 259.78 302.139 259.78C301.552 259.78 301.005 259.927 300.499 260.22C299.992 260.5 299.579 260.92 299.259 261.48C298.952 262.027 298.799 262.68 298.799 263.44C298.799 264.2 298.952 264.867 299.259 265.44C299.579 266.013 299.992 266.453 300.499 266.76C301.019 267.053 301.565 267.2 302.139 267.2C302.725 267.2 303.272 267.053 303.779 266.76C304.285 266.467 304.692 266.04 304.999 265.48C305.319 264.907 305.479 264.24 305.479 263.48ZM300.779 256.6C300.445 256.6 300.159 256.487 299.919 256.26C299.692 256.02 299.579 255.733 299.579 255.4C299.579 255.067 299.692 254.787 299.919 254.56C300.159 254.32 300.445 254.2 300.779 254.2C301.112 254.2 301.392 254.32 301.619 254.56C301.859 254.787 301.979 255.067 301.979 255.4C301.979 255.733 301.859 256.02 301.619 256.26C301.392 256.487 301.112 256.6 300.779 256.6ZM304.219 256.6C303.885 256.6 303.599 256.487 303.359 256.26C303.132 256.02 303.019 255.733 303.019 255.4C303.019 255.067 303.132 254.787 303.359 254.56C303.599 254.32 303.885 254.2 304.219 254.2C304.552 254.2 304.832 254.32 305.059 254.56C305.299 254.787 305.419 255.067 305.419 255.4C305.419 255.733 305.299 256.02 305.059 256.26C304.832 256.487 304.552 256.6 304.219 256.6ZM313.053 259.58C313.387 259.02 313.827 258.587 314.373 258.28C314.933 257.96 315.593 257.8 316.353 257.8V260.16H315.773C314.88 260.16 314.2 260.387 313.733 260.84C313.28 261.293 313.053 262.08 313.053 263.2V269H310.773V257.98H313.053V259.58ZM317.689 263.44C317.689 262.333 317.916 261.353 318.369 260.5C318.836 259.647 319.463 258.987 320.249 258.52C321.049 258.04 321.936 257.8 322.909 257.8C323.629 257.8 324.336 257.96 325.029 258.28C325.736 258.587 326.296 259 326.709 259.52V254.2H329.009V269H326.709V267.34C326.336 267.873 325.816 268.313 325.149 268.66C324.496 269.007 323.743 269.18 322.889 269.18C321.929 269.18 321.049 268.94 320.249 268.46C319.463 267.967 318.836 267.287 318.369 266.42C317.916 265.54 317.689 264.547 317.689 263.44ZM326.709 263.48C326.709 262.72 326.549 262.06 326.229 261.5C325.923 260.94 325.516 260.513 325.009 260.22C324.503 259.927 323.956 259.78 323.369 259.78C322.783 259.78 322.236 259.927 321.729 260.22C321.223 260.5 320.809 260.92 320.489 261.48C320.183 262.027 320.029 262.68 320.029 263.44C320.029 264.2 320.183 264.867 320.489 265.44C320.809 266.013 321.223 266.453 321.729 266.76C322.249 267.053 322.796 267.2 323.369 267.2C323.956 267.2 324.503 267.053 325.009 266.76C325.516 266.467 325.923 266.04 326.229 265.48C326.549 264.907 326.709 264.24 326.709 263.48ZM331.244 263.44C331.244 262.333 331.471 261.353 331.924 260.5C332.391 259.647 333.017 258.987 333.804 258.52C334.604 258.04 335.484 257.8 336.444 257.8C337.311 257.8 338.064 257.973 338.704 258.32C339.357 258.653 339.877 259.073 340.264 259.58V257.98H342.564V269H340.264V267.36C339.877 267.88 339.351 268.313 338.684 268.66C338.017 269.007 337.257 269.18 336.404 269.18C335.457 269.18 334.591 268.94 333.804 268.46C333.017 267.967 332.391 267.287 331.924 266.42C331.471 265.54 331.244 264.547 331.244 263.44ZM340.264 263.48C340.264 262.72 340.104 262.06 339.784 261.5C339.477 260.94 339.071 260.513 338.564 260.22C338.057 259.927 337.511 259.78 336.924 259.78C336.337 259.78 335.791 259.927 335.284 260.22C334.777 260.5 334.364 260.92 334.044 261.48C333.737 262.027 333.584 262.68 333.584 263.44C333.584 264.2 333.737 264.867 334.044 265.44C334.364 266.013 334.777 266.453 335.284 266.76C335.804 267.053 336.351 267.2 336.924 267.2C337.511 267.2 338.057 267.053 338.564 266.76C339.071 266.467 339.477 266.04 339.784 265.48C340.104 264.907 340.264 264.24 340.264 263.48ZM349.559 269.18C348.692 269.18 347.912 269.027 347.219 268.72C346.539 268.4 345.999 267.973 345.599 267.44C345.199 266.893 344.985 266.287 344.959 265.62H347.319C347.359 266.087 347.579 266.48 347.979 266.8C348.392 267.107 348.905 267.26 349.519 267.26C350.159 267.26 350.652 267.14 350.999 266.9C351.359 266.647 351.539 266.327 351.539 265.94C351.539 265.527 351.339 265.22 350.939 265.02C350.552 264.82 349.932 264.6 349.079 264.36C348.252 264.133 347.579 263.913 347.059 263.7C346.539 263.487 346.085 263.16 345.699 262.72C345.325 262.28 345.139 261.7 345.139 260.98C345.139 260.393 345.312 259.86 345.659 259.38C346.005 258.887 346.499 258.5 347.139 258.22C347.792 257.94 348.539 257.8 349.379 257.8C350.632 257.8 351.639 258.12 352.399 258.76C353.172 259.387 353.585 260.247 353.639 261.34H351.359C351.319 260.847 351.119 260.453 350.759 260.16C350.399 259.867 349.912 259.72 349.299 259.72C348.699 259.72 348.239 259.833 347.919 260.06C347.599 260.287 347.439 260.587 347.439 260.96C347.439 261.253 347.545 261.5 347.759 261.7C347.972 261.9 348.232 262.06 348.539 262.18C348.845 262.287 349.299 262.427 349.899 262.6C350.699 262.813 351.352 263.033 351.859 263.26C352.379 263.473 352.825 263.793 353.199 264.22C353.572 264.647 353.765 265.213 353.779 265.92C353.779 266.547 353.605 267.107 353.259 267.6C352.912 268.093 352.419 268.48 351.779 268.76C351.152 269.04 350.412 269.18 349.559 269.18ZM357.162 269.14C356.749 269.14 356.402 269 356.122 268.72C355.842 268.44 355.702 268.093 355.702 267.68C355.702 267.267 355.842 266.92 356.122 266.64C356.402 266.36 356.749 266.22 357.162 266.22C357.562 266.22 357.902 266.36 358.182 266.64C358.462 266.92 358.602 267.267 358.602 267.68C358.602 268.093 358.462 268.44 358.182 268.72C357.902 269 357.562 269.14 357.162 269.14ZM104.48 285.1V286.96H100.78V299H98.5V286.96H94.78V285.1H104.48ZM106.029 293.44C106.029 292.333 106.256 291.353 106.709 290.5C107.176 289.647 107.802 288.987 108.589 288.52C109.389 288.04 110.269 287.8 111.229 287.8C112.096 287.8 112.849 287.973 113.489 288.32C114.142 288.653 114.662 289.073 115.049 289.58V287.98H117.349V299H115.049V297.36C114.662 297.88 114.136 298.313 113.469 298.66C112.802 299.007 112.042 299.18 111.189 299.18C110.242 299.18 109.376 298.94 108.589 298.46C107.802 297.967 107.176 297.287 106.709 296.42C106.256 295.54 106.029 294.547 106.029 293.44ZM115.049 293.48C115.049 292.72 114.889 292.06 114.569 291.5C114.262 290.94 113.856 290.513 113.349 290.22C112.842 289.927 112.296 289.78 111.709 289.78C111.122 289.78 110.576 289.927 110.069 290.22C109.562 290.5 109.149 290.92 108.829 291.48C108.522 292.027 108.369 292.68 108.369 293.44C108.369 294.2 108.522 294.867 108.829 295.44C109.149 296.013 109.562 296.453 110.069 296.76C110.589 297.053 111.136 297.2 111.709 297.2C112.296 297.2 112.842 297.053 113.349 296.76C113.856 296.467 114.262 296.04 114.569 295.48C114.889 294.907 115.049 294.24 115.049 293.48ZM119.584 293.48C119.584 292.347 119.81 291.353 120.264 290.5C120.73 289.633 121.37 288.967 122.184 288.5C122.997 288.033 123.93 287.8 124.984 287.8C126.317 287.8 127.417 288.12 128.284 288.76C129.164 289.387 129.757 290.287 130.064 291.46H127.604C127.404 290.913 127.084 290.487 126.644 290.18C126.204 289.873 125.65 289.72 124.984 289.72C124.05 289.72 123.304 290.053 122.744 290.72C122.197 291.373 121.924 292.293 121.924 293.48C121.924 294.667 122.197 295.593 122.744 296.26C123.304 296.927 124.05 297.26 124.984 297.26C126.304 297.26 127.177 296.68 127.604 295.52H130.064C129.744 296.64 129.144 297.533 128.264 298.2C127.384 298.853 126.29 299.18 124.984 299.18C123.93 299.18 122.997 298.947 122.184 298.48C121.37 298 120.73 297.333 120.264 296.48C119.81 295.613 119.584 294.613 119.584 293.48ZM136.696 293.5L141.776 299H138.696L134.616 294.26V299H132.336V284.2H134.616V292.8L138.616 287.98H141.776L136.696 293.5ZM153.225 289.84H151.185V299H148.885V289.84H147.585V287.98H148.885V287.2C148.885 285.933 149.219 285.013 149.885 284.44C150.565 283.853 151.625 283.56 153.065 283.56V285.46C152.372 285.46 151.885 285.593 151.605 285.86C151.325 286.113 151.185 286.56 151.185 287.2V287.98H153.225V289.84ZM160.026 299.18C158.986 299.18 158.046 298.947 157.206 298.48C156.366 298 155.706 297.333 155.226 296.48C154.746 295.613 154.506 294.613 154.506 293.48C154.506 292.36 154.753 291.367 155.246 290.5C155.739 289.633 156.413 288.967 157.266 288.5C158.119 288.033 159.073 287.8 160.126 287.8C161.179 287.8 162.133 288.033 162.986 288.5C163.839 288.967 164.513 289.633 165.006 290.5C165.499 291.367 165.746 292.36 165.746 293.48C165.746 294.6 165.493 295.593 164.986 296.46C164.479 297.327 163.786 298 162.906 298.48C162.039 298.947 161.079 299.18 160.026 299.18ZM160.026 297.2C160.613 297.2 161.159 297.06 161.666 296.78C162.186 296.5 162.606 296.08 162.926 295.52C163.246 294.96 163.406 294.28 163.406 293.48C163.406 292.68 163.253 292.007 162.946 291.46C162.639 290.9 162.233 290.48 161.726 290.2C161.219 289.92 160.673 289.78 160.086 289.78C159.499 289.78 158.953 289.92 158.446 290.2C157.953 290.48 157.559 290.9 157.266 291.46C156.973 292.007 156.826 292.68 156.826 293.48C156.826 294.667 157.126 295.587 157.726 296.24C158.339 296.88 159.106 297.2 160.026 297.2ZM158.406 286.42C158.073 286.42 157.786 286.307 157.546 286.08C157.319 285.84 157.206 285.553 157.206 285.22C157.206 284.887 157.319 284.607 157.546 284.38C157.786 284.14 158.073 284.02 158.406 284.02C158.739 284.02 159.019 284.14 159.246 284.38C159.486 284.607 159.606 284.887 159.606 285.22C159.606 285.553 159.486 285.84 159.246 286.08C159.019 286.307 158.739 286.42 158.406 286.42ZM161.846 286.42C161.513 286.42 161.226 286.307 160.986 286.08C160.759 285.84 160.646 285.553 160.646 285.22C160.646 284.887 160.759 284.607 160.986 284.38C161.226 284.14 161.513 284.02 161.846 284.02C162.179 284.02 162.459 284.14 162.686 284.38C162.926 284.607 163.046 284.887 163.046 285.22C163.046 285.553 162.926 285.84 162.686 286.08C162.459 286.307 162.179 286.42 161.846 286.42ZM170.28 289.58C170.613 289.02 171.053 288.587 171.6 288.28C172.16 287.96 172.82 287.8 173.58 287.8V290.16H173C172.107 290.16 171.427 290.387 170.96 290.84C170.507 291.293 170.28 292.08 170.28 293.2V299H168V287.98H170.28V289.58ZM180.111 293.44C180.111 292.333 180.338 291.353 180.791 290.5C181.258 289.647 181.884 288.987 182.671 288.52C183.471 288.04 184.358 287.8 185.331 287.8C186.051 287.8 186.758 287.96 187.451 288.28C188.158 288.587 188.718 289 189.131 289.52V284.2H191.431V299H189.131V297.34C188.758 297.873 188.238 298.313 187.571 298.66C186.918 299.007 186.164 299.18 185.311 299.18C184.351 299.18 183.471 298.94 182.671 298.46C181.884 297.967 181.258 297.287 180.791 296.42C180.338 295.54 180.111 294.547 180.111 293.44ZM189.131 293.48C189.131 292.72 188.971 292.06 188.651 291.5C188.344 290.94 187.938 290.513 187.431 290.22C186.924 289.927 186.378 289.78 185.791 289.78C185.204 289.78 184.658 289.927 184.151 290.22C183.644 290.5 183.231 290.92 182.911 291.48C182.604 292.027 182.451 292.68 182.451 293.44C182.451 294.2 182.604 294.867 182.911 295.44C183.231 296.013 183.644 296.453 184.151 296.76C184.671 297.053 185.218 297.2 185.791 297.2C186.378 297.2 186.924 297.053 187.431 296.76C187.938 296.467 188.344 296.04 188.651 295.48C188.971 294.907 189.131 294.24 189.131 293.48ZM195.586 286.52C195.172 286.52 194.826 286.38 194.546 286.1C194.266 285.82 194.126 285.473 194.126 285.06C194.126 284.647 194.266 284.3 194.546 284.02C194.826 283.74 195.172 283.6 195.586 283.6C195.986 283.6 196.326 283.74 196.606 284.02C196.886 284.3 197.026 284.647 197.026 285.06C197.026 285.473 196.886 285.82 196.606 286.1C196.326 286.38 195.986 286.52 195.586 286.52ZM196.706 287.98V299H194.426V287.98H196.706ZM202.359 289.84V295.94C202.359 296.353 202.453 296.653 202.639 296.84C202.839 297.013 203.173 297.1 203.639 297.1H205.039V299H203.239C202.213 299 201.426 298.76 200.879 298.28C200.333 297.8 200.059 297.02 200.059 295.94V289.84H198.759V287.98H200.059V285.24H202.359V287.98H205.039V289.84H202.359ZM209.801 289.84V295.94C209.801 296.353 209.894 296.653 210.081 296.84C210.281 297.013 210.614 297.1 211.081 297.1H212.481V299H210.681C209.654 299 208.867 298.76 208.321 298.28C207.774 297.8 207.501 297.02 207.501 295.94V289.84H206.201V287.98H207.501V285.24H209.801V287.98H212.481V289.84H209.801ZM222.437 289.84V295.94C222.437 296.353 222.531 296.653 222.717 296.84C222.917 297.013 223.251 297.1 223.717 297.1H225.117V299H223.317C222.291 299 221.504 298.76 220.957 298.28C220.411 297.8 220.137 297.02 220.137 295.94V289.84H218.837V287.98H220.137V285.24H222.437V287.98H225.117V289.84H222.437ZM226.459 293.44C226.459 292.333 226.685 291.353 227.139 290.5C227.605 289.647 228.232 288.987 229.019 288.52C229.819 288.04 230.699 287.8 231.659 287.8C232.525 287.8 233.279 287.973 233.919 288.32C234.572 288.653 235.092 289.073 235.479 289.58V287.98H237.779V299H235.479V297.36C235.092 297.88 234.565 298.313 233.899 298.66C233.232 299.007 232.472 299.18 231.619 299.18C230.672 299.18 229.805 298.94 229.019 298.46C228.232 297.967 227.605 297.287 227.139 296.42C226.685 295.54 226.459 294.547 226.459 293.44ZM235.479 293.48C235.479 292.72 235.319 292.06 234.999 291.5C234.692 290.94 234.285 290.513 233.779 290.22C233.272 289.927 232.725 289.78 232.139 289.78C231.552 289.78 231.005 289.927 230.499 290.22C229.992 290.5 229.579 290.92 229.259 291.48C228.952 292.027 228.799 292.68 228.799 293.44C228.799 294.2 228.952 294.867 229.259 295.44C229.579 296.013 229.992 296.453 230.499 296.76C231.019 297.053 231.565 297.2 232.139 297.2C232.725 297.2 233.272 297.053 233.779 296.76C234.285 296.467 234.692 296.04 234.999 295.48C235.319 294.907 235.479 294.24 235.479 293.48ZM234.759 284.72C234.759 285.373 234.539 285.9 234.099 286.3C233.672 286.7 233.139 286.9 232.499 286.9C231.872 286.9 231.339 286.7 230.899 286.3C230.472 285.9 230.259 285.373 230.259 284.72C230.259 284.053 230.472 283.52 230.899 283.12C231.339 282.72 231.872 282.52 232.499 282.52C233.139 282.52 233.672 282.72 234.099 283.12C234.539 283.52 234.759 284.053 234.759 284.72ZM233.479 284.7C233.479 284.393 233.385 284.147 233.199 283.96C233.012 283.773 232.779 283.68 232.499 283.68C232.232 283.68 232.005 283.773 231.819 283.96C231.632 284.147 231.539 284.393 231.539 284.7C231.539 284.993 231.632 285.24 231.819 285.44C232.005 285.627 232.232 285.72 232.499 285.72C232.779 285.72 233.012 285.627 233.199 285.44C233.385 285.24 233.479 284.993 233.479 284.7ZM243.053 284.2V299H240.773V284.2H243.053ZM245.287 293.44C245.287 292.333 245.514 291.353 245.967 290.5C246.434 289.647 247.06 288.987 247.847 288.52C248.647 288.04 249.527 287.8 250.487 287.8C251.354 287.8 252.107 287.973 252.747 288.32C253.4 288.653 253.92 289.073 254.307 289.58V287.98H256.607V299H254.307V297.36C253.92 297.88 253.394 298.313 252.727 298.66C252.06 299.007 251.3 299.18 250.447 299.18C249.5 299.18 248.634 298.94 247.847 298.46C247.06 297.967 246.434 297.287 245.967 296.42C245.514 295.54 245.287 294.547 245.287 293.44ZM254.307 293.48C254.307 292.72 254.147 292.06 253.827 291.5C253.52 290.94 253.114 290.513 252.607 290.22C252.1 289.927 251.554 289.78 250.967 289.78C250.38 289.78 249.834 289.927 249.327 290.22C248.82 290.5 248.407 290.92 248.087 291.48C247.78 292.027 247.627 292.68 247.627 293.44C247.627 294.2 247.78 294.867 248.087 295.44C248.407 296.013 248.82 296.453 249.327 296.76C249.847 297.053 250.394 297.2 250.967 297.2C251.554 297.2 252.1 297.053 252.607 296.76C253.114 296.467 253.52 296.04 253.827 295.48C254.147 294.907 254.307 294.24 254.307 293.48ZM272.942 287.8C273.808 287.8 274.582 287.98 275.262 288.34C275.955 288.7 276.495 289.233 276.882 289.94C277.282 290.647 277.482 291.5 277.482 292.5V299H275.222V292.84C275.222 291.853 274.975 291.1 274.482 290.58C273.988 290.047 273.315 289.78 272.462 289.78C271.608 289.78 270.928 290.047 270.422 290.58C269.928 291.1 269.682 291.853 269.682 292.84V299H267.422V292.84C267.422 291.853 267.175 291.1 266.682 290.58C266.188 290.047 265.515 289.78 264.662 289.78C263.808 289.78 263.128 290.047 262.622 290.58C262.128 291.1 261.882 291.853 261.882 292.84V299H259.602V287.98H261.882V289.24C262.255 288.787 262.728 288.433 263.302 288.18C263.875 287.927 264.488 287.8 265.142 287.8C266.022 287.8 266.808 287.987 267.502 288.36C268.195 288.733 268.728 289.273 269.102 289.98C269.435 289.313 269.955 288.787 270.662 288.4C271.368 288 272.128 287.8 272.942 287.8ZM285.163 299.18C284.123 299.18 283.183 298.947 282.343 298.48C281.503 298 280.843 297.333 280.363 296.48C279.883 295.613 279.643 294.613 279.643 293.48C279.643 292.36 279.889 291.367 280.383 290.5C280.876 289.633 281.549 288.967 282.403 288.5C283.256 288.033 284.209 287.8 285.263 287.8C286.316 287.8 287.269 288.033 288.123 288.5C288.976 288.967 289.649 289.633 290.143 290.5C290.636 291.367 290.883 292.36 290.883 293.48C290.883 294.6 290.629 295.593 290.123 296.46C289.616 297.327 288.923 298 288.043 298.48C287.176 298.947 286.216 299.18 285.163 299.18ZM285.163 297.2C285.749 297.2 286.296 297.06 286.803 296.78C287.323 296.5 287.743 296.08 288.063 295.52C288.383 294.96 288.543 294.28 288.543 293.48C288.543 292.68 288.389 292.007 288.083 291.46C287.776 290.9 287.369 290.48 286.863 290.2C286.356 289.92 285.809 289.78 285.223 289.78C284.636 289.78 284.089 289.92 283.583 290.2C283.089 290.48 282.696 290.9 282.403 291.46C282.109 292.007 281.963 292.68 281.963 293.48C281.963 294.667 282.263 295.587 282.863 296.24C283.476 296.88 284.243 297.2 285.163 297.2ZM292.377 293.44C292.377 292.333 292.603 291.353 293.057 290.5C293.523 289.647 294.15 288.987 294.937 288.52C295.737 288.04 296.623 287.8 297.597 287.8C298.317 287.8 299.023 287.96 299.717 288.28C300.423 288.587 300.983 289 301.397 289.52V284.2H303.697V299H301.397V297.34C301.023 297.873 300.503 298.313 299.837 298.66C299.183 299.007 298.43 299.18 297.577 299.18C296.617 299.18 295.737 298.94 294.937 298.46C294.15 297.967 293.523 297.287 293.057 296.42C292.603 295.54 292.377 294.547 292.377 293.44ZM301.397 293.48C301.397 292.72 301.237 292.06 300.917 291.5C300.61 290.94 300.203 290.513 299.697 290.22C299.19 289.927 298.643 289.78 298.057 289.78C297.47 289.78 296.923 289.927 296.417 290.22C295.91 290.5 295.497 290.92 295.177 291.48C294.87 292.027 294.717 292.68 294.717 293.44C294.717 294.2 294.87 294.867 295.177 295.44C295.497 296.013 295.91 296.453 296.417 296.76C296.937 297.053 297.483 297.2 298.057 297.2C298.643 297.2 299.19 297.053 299.697 296.76C300.203 296.467 300.61 296.04 300.917 295.48C301.237 294.907 301.397 294.24 301.397 293.48Z" fill="white"/>
<path d="M99.264 161.54V173.944C99.264 175.419 99.6467 176.529 100.412 177.276C101.196 178.023 102.279 178.396 103.66 178.396C105.06 178.396 106.143 178.023 106.908 177.276C107.692 176.529 108.084 175.419 108.084 173.944V161.54H111.276V173.888C111.276 175.475 110.931 176.819 110.24 177.92C109.549 179.021 108.625 179.843 107.468 180.384C106.311 180.925 105.032 181.196 103.632 181.196C102.232 181.196 100.953 180.925 99.796 180.384C98.6573 179.843 97.752 179.021 97.08 177.92C96.408 176.819 96.072 175.475 96.072 173.888V161.54H99.264ZM123.216 165.32C124.429 165.32 125.512 165.572 126.464 166.076C127.435 166.58 128.191 167.327 128.732 168.316C129.273 169.305 129.544 170.5 129.544 171.9V181H126.38V172.376C126.38 170.995 126.035 169.94 125.344 169.212C124.653 168.465 123.711 168.092 122.516 168.092C121.321 168.092 120.369 168.465 119.66 169.212C118.969 169.94 118.624 170.995 118.624 172.376V181H115.432V165.572H118.624V167.336C119.147 166.701 119.809 166.207 120.612 165.852C121.433 165.497 122.301 165.32 123.216 165.32ZM132.552 173.216C132.552 171.667 132.869 170.295 133.504 169.1C134.157 167.905 135.034 166.981 136.136 166.328C137.256 165.656 138.497 165.32 139.86 165.32C140.868 165.32 141.857 165.544 142.828 165.992C143.817 166.421 144.601 167 145.18 167.728V160.28H148.4V181H145.18V178.676C144.657 179.423 143.929 180.039 142.996 180.524C142.081 181.009 141.026 181.252 139.832 181.252C138.488 181.252 137.256 180.916 136.136 180.244C135.034 179.553 134.157 178.601 133.504 177.388C132.869 176.156 132.552 174.765 132.552 173.216ZM145.18 173.272C145.18 172.208 144.956 171.284 144.508 170.5C144.078 169.716 143.509 169.119 142.8 168.708C142.09 168.297 141.325 168.092 140.504 168.092C139.682 168.092 138.917 168.297 138.208 168.708C137.498 169.1 136.92 169.688 136.472 170.472C136.042 171.237 135.828 172.152 135.828 173.216C135.828 174.28 136.042 175.213 136.472 176.016C136.92 176.819 137.498 177.435 138.208 177.864C138.936 178.275 139.701 178.48 140.504 178.48C141.325 178.48 142.09 178.275 142.8 177.864C143.509 177.453 144.078 176.856 144.508 176.072C144.956 175.269 145.18 174.336 145.18 173.272ZM166.732 172.908C166.732 173.487 166.695 174.009 166.62 174.476H154.832C154.926 175.708 155.383 176.697 156.204 177.444C157.026 178.191 158.034 178.564 159.228 178.564C160.946 178.564 162.159 177.845 162.868 176.408H166.312C165.846 177.827 164.996 178.993 163.764 179.908C162.551 180.804 161.039 181.252 159.228 181.252C157.754 181.252 156.428 180.925 155.252 180.272C154.095 179.6 153.18 178.667 152.508 177.472C151.855 176.259 151.528 174.859 151.528 173.272C151.528 171.685 151.846 170.295 152.48 169.1C153.134 167.887 154.039 166.953 155.196 166.3C156.372 165.647 157.716 165.32 159.228 165.32C160.684 165.32 161.982 165.637 163.12 166.272C164.259 166.907 165.146 167.803 165.78 168.96C166.415 170.099 166.732 171.415 166.732 172.908ZM163.4 171.9C163.382 170.724 162.962 169.781 162.14 169.072C161.319 168.363 160.302 168.008 159.088 168.008C157.987 168.008 157.044 168.363 156.26 169.072C155.476 169.763 155.01 170.705 154.86 171.9H163.4ZM173.065 167.812C173.532 167.028 174.148 166.421 174.913 165.992C175.697 165.544 176.621 165.32 177.685 165.32V168.624H176.873C175.623 168.624 174.671 168.941 174.017 169.576C173.383 170.211 173.065 171.312 173.065 172.88V181H169.873V165.572H173.065V167.812ZM186.829 173.216C186.829 171.667 187.146 170.295 187.781 169.1C188.434 167.905 189.312 166.981 190.413 166.328C191.533 165.656 192.774 165.32 194.137 165.32C195.145 165.32 196.134 165.544 197.105 165.992C198.094 166.421 198.878 167 199.457 167.728V160.28H202.677V181H199.457V178.676C198.934 179.423 198.206 180.039 197.273 180.524C196.358 181.009 195.304 181.252 194.109 181.252C192.765 181.252 191.533 180.916 190.413 180.244C189.312 179.553 188.434 178.601 187.781 177.388C187.146 176.156 186.829 174.765 186.829 173.216ZM199.457 173.272C199.457 172.208 199.233 171.284 198.785 170.5C198.356 169.716 197.786 169.119 197.077 168.708C196.368 168.297 195.602 168.092 194.781 168.092C193.96 168.092 193.194 168.297 192.485 168.708C191.776 169.1 191.197 169.688 190.749 170.472C190.32 171.237 190.105 172.152 190.105 173.216C190.105 174.28 190.32 175.213 190.749 176.016C191.197 176.819 191.776 177.435 192.485 177.864C193.213 178.275 193.978 178.48 194.781 178.48C195.602 178.48 196.368 178.275 197.077 177.864C197.786 177.453 198.356 176.856 198.785 176.072C199.233 175.269 199.457 174.336 199.457 173.272ZM221.01 172.908C221.01 173.487 220.972 174.009 220.898 174.476H209.11C209.203 175.708 209.66 176.697 210.482 177.444C211.303 178.191 212.311 178.564 213.506 178.564C215.223 178.564 216.436 177.845 217.146 176.408H220.59C220.123 177.827 219.274 178.993 218.042 179.908C216.828 180.804 215.316 181.252 213.506 181.252C212.031 181.252 210.706 180.925 209.53 180.272C208.372 179.6 207.458 178.667 206.786 177.472C206.132 176.259 205.806 174.859 205.806 173.272C205.806 171.685 206.123 170.295 206.758 169.1C207.411 167.887 208.316 166.953 209.474 166.3C210.65 165.647 211.994 165.32 213.506 165.32C214.962 165.32 216.259 165.637 217.398 166.272C218.536 166.907 219.423 167.803 220.058 168.96C220.692 170.099 221.01 171.415 221.01 172.908ZM217.678 171.9C217.659 170.724 217.239 169.781 216.418 169.072C215.596 168.363 214.579 168.008 213.366 168.008C212.264 168.008 211.322 168.363 210.538 169.072C209.754 169.763 209.287 170.705 209.138 171.9H217.678ZM230.115 178.144L234.483 165.572H237.871L231.991 181H228.183L222.331 165.572H225.747L230.115 178.144ZM254.424 172.908C254.424 173.487 254.386 174.009 254.312 174.476H242.524C242.617 175.708 243.074 176.697 243.896 177.444C244.717 178.191 245.725 178.564 246.92 178.564C248.637 178.564 249.85 177.845 250.56 176.408H254.004C253.537 177.827 252.688 178.993 251.456 179.908C250.242 180.804 248.73 181.252 246.92 181.252C245.445 181.252 244.12 180.925 242.944 180.272C241.786 179.6 240.872 178.667 240.2 177.472C239.546 176.259 239.22 174.859 239.22 173.272C239.22 171.685 239.537 170.295 240.172 169.1C240.825 167.887 241.73 166.953 242.888 166.3C244.064 165.647 245.408 165.32 246.92 165.32C248.376 165.32 249.673 165.637 250.812 166.272C251.95 166.907 252.837 167.803 253.472 168.96C254.106 170.099 254.424 171.415 254.424 172.908ZM251.092 171.9C251.073 170.724 250.653 169.781 249.832 169.072C249.01 168.363 247.993 168.008 246.78 168.008C245.678 168.008 244.736 168.363 243.952 169.072C243.168 169.763 242.701 170.705 242.552 171.9H251.092ZM260.757 160.28V181H257.565V160.28H260.757ZM271.64 181.252C270.184 181.252 268.868 180.925 267.692 180.272C266.516 179.6 265.592 178.667 264.92 177.472C264.248 176.259 263.912 174.859 263.912 173.272C263.912 171.704 264.257 170.313 264.948 169.1C265.638 167.887 266.581 166.953 267.776 166.3C268.97 165.647 270.305 165.32 271.78 165.32C273.254 165.32 274.589 165.647 275.784 166.3C276.978 166.953 277.921 167.887 278.612 169.1C279.302 170.313 279.648 171.704 279.648 173.272C279.648 174.84 279.293 176.231 278.584 177.444C277.874 178.657 276.904 179.6 275.672 180.272C274.458 180.925 273.114 181.252 271.64 181.252ZM271.64 178.48C272.461 178.48 273.226 178.284 273.936 177.892C274.664 177.5 275.252 176.912 275.7 176.128C276.148 175.344 276.372 174.392 276.372 173.272C276.372 172.152 276.157 171.209 275.728 170.444C275.298 169.66 274.729 169.072 274.02 168.68C273.31 168.288 272.545 168.092 271.724 168.092C270.902 168.092 270.137 168.288 269.428 168.68C268.737 169.072 268.186 169.66 267.776 170.444C267.365 171.209 267.16 172.152 267.16 173.272C267.16 174.933 267.58 176.221 268.42 177.136C269.278 178.032 270.352 178.48 271.64 178.48ZM285.995 167.84C286.536 167.131 287.274 166.533 288.207 166.048C289.14 165.563 290.195 165.32 291.371 165.32C292.715 165.32 293.938 165.656 295.039 166.328C296.159 166.981 297.036 167.905 297.671 169.1C298.306 170.295 298.623 171.667 298.623 173.216C298.623 174.765 298.306 176.156 297.671 177.388C297.036 178.601 296.159 179.553 295.039 180.244C293.938 180.916 292.715 181.252 291.371 181.252C290.195 181.252 289.15 181.019 288.235 180.552C287.32 180.067 286.574 179.469 285.995 178.76V188.336H282.803V165.572H285.995V167.84ZM295.375 173.216C295.375 172.152 295.151 171.237 294.703 170.472C294.274 169.688 293.695 169.1 292.967 168.708C292.258 168.297 291.492 168.092 290.671 168.092C289.868 168.092 289.103 168.297 288.375 168.708C287.666 169.119 287.087 169.716 286.639 170.5C286.21 171.284 285.995 172.208 285.995 173.272C285.995 174.336 286.21 175.269 286.639 176.072C287.087 176.856 287.666 177.453 288.375 177.864C289.103 178.275 289.868 178.48 290.671 178.48C291.492 178.48 292.258 178.275 292.967 177.864C293.695 177.435 294.274 176.819 294.703 176.016C295.151 175.213 295.375 174.28 295.375 173.216ZM320.456 165.32C321.669 165.32 322.752 165.572 323.704 166.076C324.674 166.58 325.43 167.327 325.972 168.316C326.532 169.305 326.812 170.5 326.812 171.9V181H323.648V172.376C323.648 170.995 323.302 169.94 322.612 169.212C321.921 168.465 320.978 168.092 319.784 168.092C318.589 168.092 317.637 168.465 316.928 169.212C316.237 169.94 315.892 170.995 315.892 172.376V181H312.728V172.376C312.728 170.995 312.382 169.94 311.692 169.212C311.001 168.465 310.058 168.092 308.864 168.092C307.669 168.092 306.717 168.465 306.008 169.212C305.317 169.94 304.972 170.995 304.972 172.376V181H301.78V165.572H304.972V167.336C305.494 166.701 306.157 166.207 306.96 165.852C307.762 165.497 308.621 165.32 309.536 165.32C310.768 165.32 311.869 165.581 312.84 166.104C313.81 166.627 314.557 167.383 315.08 168.372C315.546 167.439 316.274 166.701 317.264 166.16C318.253 165.6 319.317 165.32 320.456 165.32ZM345.013 172.908C345.013 173.487 344.976 174.009 344.901 174.476H333.113C333.207 175.708 333.664 176.697 334.485 177.444C335.307 178.191 336.315 178.564 337.509 178.564C339.227 178.564 340.44 177.845 341.149 176.408H344.593C344.127 177.827 343.277 178.993 342.045 179.908C340.832 180.804 339.32 181.252 337.509 181.252C336.035 181.252 334.709 180.925 333.533 180.272C332.376 179.6 331.461 178.667 330.789 177.472C330.136 176.259 329.809 174.859 329.809 173.272C329.809 171.685 330.127 170.295 330.761 169.1C331.415 167.887 332.32 166.953 333.477 166.3C334.653 165.647 335.997 165.32 337.509 165.32C338.965 165.32 340.263 165.637 341.401 166.272C342.54 166.907 343.427 167.803 344.061 168.96C344.696 170.099 345.013 171.415 345.013 172.908ZM341.681 171.9C341.663 170.724 341.243 169.781 340.421 169.072C339.6 168.363 338.583 168.008 337.369 168.008C336.268 168.008 335.325 168.363 334.541 169.072C333.757 169.763 333.291 170.705 333.141 171.9H341.681ZM355.939 165.32C357.152 165.32 358.235 165.572 359.187 166.076C360.157 166.58 360.913 167.327 361.455 168.316C361.996 169.305 362.267 170.5 362.267 171.9V181H359.103V172.376C359.103 170.995 358.757 169.94 358.067 169.212C357.376 168.465 356.433 168.092 355.239 168.092C354.044 168.092 353.092 168.465 352.383 169.212C351.692 169.94 351.347 170.995 351.347 172.376V181H348.155V165.572H351.347V167.336C351.869 166.701 352.532 166.207 353.335 165.852C354.156 165.497 355.024 165.32 355.939 165.32ZM370.062 168.176V176.716C370.062 177.295 370.193 177.715 370.454 177.976C370.734 178.219 371.201 178.34 371.854 178.34H373.814V181H371.294C369.857 181 368.756 180.664 367.99 179.992C367.225 179.32 366.842 178.228 366.842 176.716V168.176H365.022V165.572H366.842V161.736H370.062V165.572H373.814V168.176H370.062Z" fill="#FCC936"/>
<rect x="20" y="20" width="42" height="42" rx="5" fill="black"/>
<path d="M41.0305 31.616C40.4758 31.616 40.0065 31.424 39.6225 31.04C39.2385 30.656 39.0465 30.1867 39.0465 29.632C39.0465 29.0773 39.2385 28.608 39.6225 28.224C40.0065 27.84 40.4758 27.648 41.0305 27.648C41.5638 27.648 42.0118 27.84 42.3745 28.224C42.7585 28.608 42.9505 29.0773 42.9505 29.632C42.9505 30.1867 42.7585 30.656 42.3745 31.04C42.0118 31.424 41.5638 31.616 41.0305 31.616ZM42.4385 34.464V52H39.5265V34.464H42.4385Z" fill="white"/>
</svg>
