<svg width="40" height="40" viewBox="0 0 40 40" fill="none" xmlns="http://www.w3.org/2000/svg">
<path d="M22.1213 36.212C20.9497 37.3836 19.0503 37.3836 17.8787 36.212L15.8787 34.212C15.3161 33.6494 14.553 33.3333 13.7574 33.3333H7.77775C7.02775 33.3333 6.37729 33.0532 5.82637 32.4931C5.27546 31.9329 5 31.2871 5 30.5556V6.11109C5 5.36109 5.27546 4.71063 5.82637 4.15972C6.37729 3.6088 7.02775 3.33334 7.77775 3.33334H32.2222C32.9537 3.33334 33.5995 3.6088 34.1597 4.15972C34.7199 4.71063 35 5.36109 35 6.11109V30.5556C35 31.2871 34.7199 31.9329 34.1597 32.4931C33.5995 33.0532 32.9537 33.3333 32.2222 33.3333H26.2426C25.447 33.3333 24.6839 33.6494 24.1213 34.212L22.1213 36.212ZM19.7778 21.4722C20.4988 21.4722 21.0548 20.8805 21.1965 20.1736C21.2609 19.8522 21.3528 19.5722 21.4722 19.3333C21.7315 18.8148 22.2129 18.2037 22.9167 17.5C23.8518 16.5648 24.5069 15.7523 24.8819 15.0625C25.2569 14.3727 25.4444 13.6296 25.4444 12.8333C25.4444 11.3611 24.9629 10.1875 24 9.31251C23.037 8.43751 21.7361 8.00001 20.0972 8.00001C18.6435 8.00001 17.4005 8.35186 16.368 9.05555C15.6788 9.52534 15.1186 10.1148 14.6873 10.8239C14.3177 11.4315 14.6607 12.1846 15.3194 12.4526V12.4526C15.9892 12.7252 16.732 12.3846 17.1935 11.8279C17.4069 11.5706 17.6479 11.3478 17.9167 11.1597C18.5185 10.7384 19.2269 10.5278 20.0417 10.5278C20.8843 10.5278 21.5602 10.7431 22.0695 11.1736C22.5787 11.6042 22.8333 12.1898 22.8333 12.9306C22.8333 13.4583 22.6806 13.9815 22.375 14.5C22.0694 15.0185 21.5556 15.6158 20.8333 16.2917C19.8426 17.2083 19.2014 18.0208 18.9097 18.7292C18.7405 19.14 18.6204 19.6202 18.5494 20.1697C18.4569 20.8848 19.0567 21.4722 19.7778 21.4722V21.4722ZM19.8889 27.7222C20.3796 27.7222 20.794 27.5532 21.1319 27.2153C21.4699 26.8773 21.6389 26.463 21.6389 25.9722C21.6389 25.4815 21.4699 25.0671 21.1319 24.7292C20.794 24.3912 20.3796 24.2223 19.8889 24.2223C19.3982 24.2223 18.9838 24.3912 18.6458 24.7292C18.3079 25.0671 18.1389 25.4815 18.1389 25.9722C18.1389 26.463 18.3079 26.8773 18.6458 27.2153C18.9838 27.5532 19.3982 27.7222 19.8889 27.7222Z" fill="#D9D9D9"/>
</svg>
