<svg xmlns="http://www.w3.org/2000/svg" height="40" viewBox="0 96 960 960" width="40"><path d="M480 1016 360 896H186.666q-27 0-46.833-20.167Q120 855.667 120 829.334V242.666q0-27 19.833-46.833T186.666 176h586.668q26.333 0 46.499 19.833Q840 215.666 840 242.666v586.668q0 26.333-20.167 46.499Q799.667 896 773.334 896H600l-120 120Zm26-404.667q0-32.666 9.333-51.333T550 516q33.666-33.667 47.166-58.5t13.5-53.5q0-53-34.666-84.5-34.667-31.5-93.667-31.5-52.333 0-89.5 25.333-37.166 25.334-53.5 70l57.333 23.333Q408.333 379 430 363.833q21.667-15.167 51-15.167 30.333 0 48.667 15.501Q548 379.667 548 406.333q0 19-11 37.667t-37 43q-35.667 33-46.167 58.5t-10.5 65.833H506Zm-28.667 150q17.667 0 29.833-12.166 12.167-12.167 12.167-29.834 0-17.666-12.167-29.833-12.166-12.166-29.833-12.166-17.666 0-29.833 12.166-12.166 12.167-12.166 29.833 0 17.667 12.166 29.834 12.167 12.166 29.833 12.166Z"/></svg>