<svg xmlns="http://www.w3.org/2000/svg" height="40" viewBox="0 96 960 960" width="40"><path d="M158.666 856q-42.333 0-66-28.833Q69 798.334 75.333 751.334l46-323.334q8.334-55.333 50.834-93.667Q214.666 296 270 296h420.667Q746 296 788.5 334.333 831 372.667 839.333 428l45.334 323.334q6.333 47-17.333 75.833-23.667 28.833-66 28.833-22.333 0-39-7.5t-29-19.833l-99.333-99.334H325.999l-99.333 99.334q-12.333 12.333-29 19.833-16.667 7.5-39 7.5Zm534.668-240q16.333 0 28.166-11.833 11.834-11.834 11.834-28.167 0-16.333-11.834-28.167Q709.667 536 693.334 536q-16.334 0-28.167 11.833-11.833 11.834-11.833 28.167 0 16.333 11.833 28.167Q677 616 693.334 616ZM610 489.333q16.334 0 28.167-11.833Q650 465.666 650 449.333q0-16.333-11.833-28.166-11.833-11.834-28.167-11.834-16.333 0-28.166 11.834Q570 433 570 449.333t11.834 28.167q11.833 11.833 28.166 11.833ZM303.333 612.667h53.333v-73.334H430V486h-73.334v-73.333h-53.333V486H230v53.333h73.333v73.334Z"/></svg>