<svg width="40" height="40" viewBox="0 0 40 40" fill="none" xmlns="http://www.w3.org/2000/svg">
<path d="M7.98658 34.0294C7.44919 34.5656 6.57898 34.5652 6.04217 34.0283V34.0283C5.50494 33.4911 5.50494 32.6201 6.04217 32.0829L20.9673 17.1577C21.8482 16.2768 22.0147 14.943 21.912 13.7015C21.8561 13.0253 21.9132 12.3285 22.0833 11.6112C22.4259 10.1667 23.2176 8.83337 24.4583 7.61115C25.7824 6.3056 27.3379 5.4954 29.125 5.18057C30.912 4.86576 32.375 5.2778 33.5139 6.41669C34.6713 7.57411 35.0833 9.03707 34.75 10.8056C34.4166 12.5741 33.5694 14.1482 32.2083 15.5278C31.0602 16.713 29.7731 17.4861 28.3472 17.8472C27.6645 18.0201 27.0073 18.0922 26.3755 18.0635C25.1481 18.0076 23.8325 18.1813 22.9637 19.0502L21.8472 20.1667L33.7633 32.0829C34.3006 32.6201 34.3006 33.4911 33.7633 34.0284V34.0284C33.2265 34.5652 32.3563 34.5656 31.8189 34.0294L19.9028 22.1389L7.98658 34.0294ZM13.5392 19.0858C12.7581 19.8669 11.4918 19.8669 10.7108 19.0858L7.15277 15.5278C5.70833 14.0834 4.96757 12.3658 4.93052 10.375C4.89993 8.73025 5.35601 7.25298 6.29878 5.9432C6.63054 5.48229 7.29212 5.47362 7.69314 5.87572L15.7979 14.0025C16.5772 14.7838 16.5763 16.0487 15.796 16.829L13.5392 19.0858Z" fill="#666699"/>
</svg>
