<svg width="40" height="40" viewBox="0 0 40 40" fill="none" xmlns="http://www.w3.org/2000/svg">
<path d="M13.0555 22.7777C12.2885 22.7777 11.6667 22.1559 11.6667 21.3889V21.3889C11.6667 20.6218 12.2885 20 13.0555 20H26.9445C27.7115 20 28.3333 20.6218 28.3333 21.3889V21.3889C28.3333 22.1559 27.7115 22.7777 26.9445 22.7777H13.0555ZM13.0555 30C12.2885 30 11.6667 29.3782 11.6667 28.6111V28.6111C11.6667 27.8441 12.2885 27.2222 13.0555 27.2222H21.9167C22.6837 27.2222 23.3055 27.8441 23.3055 28.6111V28.6111C23.3055 29.3782 22.6837 30 21.9167 30H13.0555ZM7.77775 36.6666C7.02775 36.6666 6.37729 36.3912 5.82637 35.8403C5.27546 35.2894 5 34.6389 5 33.8889V8.88886C5 8.13886 5.27546 7.4884 5.82637 6.93748C6.37729 6.38654 7.02775 6.11106 7.77775 6.11106H9.44444C9.82796 6.11106 10.1389 5.80015 10.1389 5.41663V4.79165C10.1389 3.98623 10.7918 3.33331 11.5972 3.33331V3.33331C12.4026 3.33331 13.0555 3.98623 13.0555 4.79165V5.41663C13.0555 5.80015 13.3665 6.11106 13.75 6.11106H26.25C26.6335 6.11106 26.9445 5.80015 26.9445 5.41663V4.79165C26.9445 3.98623 27.5974 3.33331 28.4028 3.33331V3.33331C29.2082 3.33331 29.8611 3.98623 29.8611 4.79165V5.41663C29.8611 5.80015 30.172 6.11106 30.5556 6.11106H32.2222C32.9722 6.11106 33.6227 6.38654 34.1736 6.93748C34.7245 7.4884 35 8.13886 35 8.88886V33.8889C35 34.6389 34.7245 35.2894 34.1736 35.8403C33.6227 36.3912 32.9722 36.6666 32.2222 36.6666H7.77775ZM7.77775 32.8889C7.77775 33.4412 8.22547 33.8889 8.77775 33.8889H31.2223C31.7745 33.8889 32.2222 33.4412 32.2222 32.8889V17.3889C32.2222 16.8366 31.7745 16.3889 31.2222 16.3889H8.77775C8.22547 16.3889 7.77775 16.8366 7.77775 17.3889V32.8889Z" fill="#666699"/>
</svg>
