<svg width="24" height="24" viewBox="0 0 24 24" fill="none" xmlns="http://www.w3.org/2000/svg">
<path d="M4 20C3.16667 20 2.45833 19.7083 1.875 19.125C1.29167 18.5417 1 17.8333 1 17V12C1 11.45 1.19583 10.9792 1.5875 10.5875C1.97917 10.1958 2.45 10 3 10C3.55 10 4.02083 10.1958 4.4125 10.5875C4.80417 10.9792 5 11.45 5 12V14C5 15.1046 5.89543 16 7 16H17C18.1046 16 19 15.1046 19 14V12C19 11.45 19.1958 10.9792 19.5875 10.5875C19.9792 10.1958 20.45 10 21 10C21.55 10 22.0208 10.1958 22.4125 10.5875C22.8042 10.9792 23 11.45 23 12V17C23 17.8333 22.7083 18.5417 22.125 19.125C21.5417 19.7083 20.8333 20 20 20H4ZM8 14C7.44772 14 7 13.5523 7 13V12C7 11.1167 6.7125 10.3417 6.1375 9.675C5.7276 9.19976 5.24783 8.83038 4.69818 8.56688C4.29817 8.37511 4 7.99537 4 7.55176V7C4 6.16667 4.29167 5.45833 4.875 4.875C5.45833 4.29167 6.16667 4 7 4H17C17.8333 4 18.5417 4.29167 19.125 4.875C19.7083 5.45833 20 6.16667 20 7V7.48624C20 7.96019 19.6596 8.35455 19.2251 8.54387C18.6852 8.77911 18.2227 9.13532 17.8375 9.6125C17.2792 10.3042 17 11.1 17 12V13C17 13.5523 16.5523 14 16 14H8Z" fill="black"/>
</svg>
