<svg width="24" height="24" viewBox="0 0 24 24" fill="none" xmlns="http://www.w3.org/2000/svg">
<path d="M8 14C7.44772 14 7 13.5523 7 13V13C7 12.4477 7.44772 12 8 12H16C16.5523 12 17 12.4477 17 13V13C17 13.5523 16.5523 14 16 14H8ZM8 18C7.44772 18 7 17.5523 7 17V17C7 16.4477 7.44772 16 8 16H13C13.5523 16 14 16.4477 14 17V17C14 17.5523 13.5523 18 13 18H8ZM5 22C4.45 22 3.97917 21.8042 3.5875 21.4125C3.19583 21.0208 3 20.55 3 20V6C3 5.45 3.19583 4.97917 3.5875 4.5875C3.97917 4.19583 4.45 4 5 4H6V3C6 2.44772 6.44772 2 7 2V2C7.55228 2 8 2.44772 8 3V4H16V3C16 2.44772 16.4477 2 17 2V2C17.5523 2 18 2.44772 18 3V4H19C19.55 4 20.0208 4.19583 20.4125 4.5875C20.8042 4.97917 21 5.45 21 6V20C21 20.55 20.8042 21.0208 20.4125 21.4125C20.0208 21.8042 19.55 22 19 22H5ZM5 19C5 19.5523 5.44772 20 6 20H18C18.5523 20 19 19.5523 19 19V11C19 10.4477 18.5523 10 18 10H6C5.44772 10 5 10.4477 5 11V19Z" fill="black"/>
</svg>
