<svg width="24" height="24" viewBox="0 0 24 24" fill="none" xmlns="http://www.w3.org/2000/svg">
<path d="M13 21C12.4477 21 12 20.5523 12 20V20C12 19.4477 12.4477 19 13 19H19V5H13C12.4477 5 12 4.55228 12 4V4C12 3.44772 12.4477 3 13 3H19C19.55 3 20.0208 3.19583 20.4125 3.5875C20.8042 3.97917 21 4.45 21 5V19C21 19.55 20.8042 20.0208 20.4125 20.4125C20.0208 20.8042 19.55 21 19 21H13ZM10.7252 16.2748C10.3279 16.6721 9.68096 16.6636 9.29425 16.2558V16.2558C8.9218 15.863 8.93 15.245 9.31275 14.8623L10.7482 13.4268C10.9057 13.2693 10.7942 13 10.5714 13H4C3.44771 13 3 12.5523 3 12V12C3 11.4477 3.44772 11 4 11H10.5714C10.7942 11 10.9057 10.7307 10.7482 10.5732L9.31275 9.13775C8.93 8.755 8.9218 8.13701 9.29425 7.74424V7.74424C9.68096 7.33644 10.3279 7.32786 10.7252 7.72525L14.2929 11.2929C14.6834 11.6834 14.6834 12.3166 14.2929 12.7071L10.7252 16.2748Z" fill="black"/>
</svg>
