<svg width="24" height="24" viewBox="0 0 24 24" fill="none" xmlns="http://www.w3.org/2000/svg">
<path d="M12.7071 22.2929C12.3166 22.6834 11.6834 22.6834 11.2929 22.2929L9.29289 20.2929C9.10536 20.1054 8.851 20 8.58579 20H5C4.45 20 3.97917 19.8042 3.5875 19.4125C3.19583 19.0208 3 18.55 3 18V4C3 3.45 3.19583 2.97917 3.5875 2.5875C3.97917 2.19583 4.45 2 5 2H19C19.55 2 20.0208 2.19583 20.4125 2.5875C20.8042 2.97917 21 3.45 21 4V18C21 18.55 20.8042 19.0208 20.4125 19.4125C20.0208 19.8042 19.55 20 19 20H15.4142C15.149 20 14.8946 20.1054 14.7071 20.2929L12.7071 22.2929ZM11.975 12.95C12.4859 12.95 12.8743 12.5303 12.9743 12.0293C13.006 11.8704 13.0479 11.7356 13.1 11.625C13.2333 11.3417 13.5167 10.9833 13.95 10.55C14.5333 9.96667 14.9458 9.47917 15.1875 9.0875C15.4292 8.69583 15.55 8.25 15.55 7.75C15.55 6.86667 15.25 6.15417 14.65 5.6125C14.05 5.07083 13.2417 4.8 12.225 4.8C11.3083 4.8 10.5292 5.025 9.8875 5.475C9.45796 5.77624 9.11617 6.15589 8.86215 6.61397C8.64325 7.00869 8.87515 7.47809 9.29508 7.64352V7.64352C9.77604 7.83298 10.3025 7.53185 10.6482 7.14748C10.7241 7.06311 10.808 6.98478 10.9 6.9125C11.25 6.6375 11.6583 6.5 12.125 6.5C12.575 6.5 12.95 6.62083 13.25 6.8625C13.55 7.10417 13.7 7.425 13.7 7.825C13.7 8.10833 13.6083 8.40833 13.425 8.725C13.2417 9.04167 12.9333 9.39167 12.5 9.775C11.95 10.2583 11.5708 10.7208 11.3625 11.1625C11.2483 11.4047 11.1654 11.6932 11.1138 12.028C11.036 12.5329 11.4641 12.95 11.975 12.95V12.95ZM11.95 16.8C12.3 16.8 12.5958 16.6792 12.8375 16.4375C13.0792 16.1958 13.2 15.9 13.2 15.55C13.2 15.2 13.0792 14.9042 12.8375 14.6625C12.5958 14.4208 12.3 14.3 11.95 14.3C11.6 14.3 11.3042 14.4208 11.0625 14.6625C10.8208 14.9042 10.7 15.2 10.7 15.55C10.7 15.9 10.8208 16.1958 11.0625 16.4375C11.3042 16.6792 11.6 16.8 11.95 16.8Z" fill="black"/>
</svg>
