<svg width="24" height="24" viewBox="0 0 24 24" fill="none" xmlns="http://www.w3.org/2000/svg">
<path d="M12 17.5C13.1333 17.5 14.1625 17.1792 15.0875 16.5375C15.5992 16.1825 16.0332 15.7651 16.3893 15.2851C16.8102 14.7179 16.3336 14 15.6273 14H8.37268C7.66639 14 7.1898 14.7179 7.61068 15.2851C7.96683 15.7651 8.40077 16.1825 8.9125 16.5375C9.8375 17.1792 10.8667 17.5 12 17.5ZM7.2811 10.4811C7.56961 10.7696 8.03568 10.775 8.33082 10.4933L8.54749 10.2865C8.74349 10.0994 9.053 10.103 9.2446 10.2946L9.42191 10.4719C9.71357 10.7636 10.1864 10.7636 10.4781 10.4719V10.4719C10.7673 10.1827 10.7701 9.7146 10.4843 9.42198L9.60701 8.52384C9.21789 8.12546 8.5783 8.1217 8.18453 8.51547L7.2811 9.4189C6.98778 9.71222 6.98778 10.1878 7.2811 10.4811V10.4811ZM13.5219 10.4719C13.8136 10.7636 14.2864 10.7636 14.5781 10.4719L14.7554 10.2946C14.947 10.103 15.2565 10.0994 15.4525 10.2865L15.6692 10.4933C15.9643 10.775 16.4304 10.7696 16.7189 10.4811V10.4811C17.0122 10.1878 17.0122 9.71222 16.7189 9.4189L15.8155 8.51548C15.4217 8.1217 14.7821 8.12546 14.393 8.52384L13.5157 9.42198C13.2299 9.7146 13.2327 10.1827 13.5219 10.4719V10.4719ZM12 22C10.6167 22 9.31667 21.7375 8.1 21.2125C6.88333 20.6875 5.825 19.975 4.925 19.075C4.025 18.175 3.3125 17.1167 2.7875 15.9C2.2625 14.6833 2 13.3833 2 12C2 10.6167 2.2625 9.31667 2.7875 8.1C3.3125 6.88333 4.025 5.825 4.925 4.925C5.825 4.025 6.88333 3.3125 8.1 2.7875C9.31667 2.2625 10.6167 2 12 2C13.3833 2 14.6833 2.2625 15.9 2.7875C17.1167 3.3125 18.175 4.025 19.075 4.925C19.975 5.825 20.6875 6.88333 21.2125 8.1C21.7375 9.31667 22 10.6167 22 12C22 13.3833 21.7375 14.6833 21.2125 15.9C20.6875 17.1167 19.975 18.175 19.075 19.075C18.175 19.975 17.1167 20.6875 15.9 21.2125C14.6833 21.7375 13.3833 22 12 22Z" fill="black"/>
</svg>
